#N canvas 373 136 1160 974 16;
#X obj -15 739 throw~ out1;
#X obj 191 737 throw~ out2;
#X msg -15 528 start;
#X obj -51 -97 r \$0-play;
#X obj 304 149 s \$0-playfinished;
#X obj 341 256 switch~;
#X obj 341 190 loadbang;
#X msg 341 222 0;
#X msg 1 -30 1;
#X obj 191 607 *~ 0.5;
#X obj -15 606 *~ 0.5;
#X obj 254 562 r \$0-gain;
#X obj 515 734 throw~ out1;
#X obj 721 732 throw~ out2;
#X msg 515 525 start;
#X msg 548 484 open \$1;
#X obj 721 603 *~ 0.5;
#X obj 515 602 *~ 0.5;
#X obj 784 558 r \$0-gain;
#X msg -16 218 1;
#X msg 378 114 0;
#X obj -15 341 t b b b;
#X obj 515 343 t b b b;
#X obj 304 76 t b b b;
#X obj 548 449 symbol;
#X obj 191 639 *~ 0;
#X obj -15 638 *~ 0;
#X obj 515 634 *~ 0;
#X obj 721 635 *~ 0;
#X obj 304 42 delay 10;
#X obj 305 5 t b b;
#X obj 389 4 r \$0-fadeouttime;
#X obj 305 -96 r \$0-end;
#X text 794 635 crossfade;
#X obj 721 699 *~ 1;
#X obj 515 700 *~ 1;
#X obj 191 704 *~ 1;
#X obj -15 705 *~ 1;
#N canvas 656 75 795 450 2x2crossfade 0;
#X obj 22 -34 line 0;
#X obj 85 -141 r \$0-crossfadetime;
#X obj 121 -35 line 1;
#X obj 22 -109 f 5000;
#X obj 22 8 outlet;
#X obj 121 6 outlet;
#X obj 176 -173 inlet;
#X msg 22 -69 0 \, 1 \$1;
#X msg 121 -71 1 \, 0 \$1;
#X obj 22 -205 r \$0-startcrossfade;
#X obj 301 -210 r \$0-stopfades;
#X msg 301 -176 0;
#X msg 355 -175 1;
#X connect 0 0 4 0;
#X connect 1 0 3 1;
#X connect 2 0 5 0;
#X connect 3 0 7 0;
#X connect 3 0 8 0;
#X connect 6 0 3 0;
#X connect 7 0 0 0;
#X connect 8 0 2 0;
#X connect 9 0 3 0;
#X connect 10 0 11 0;
#X connect 10 0 12 0;
#X connect 11 0 0 0;
#X connect 12 0 2 0;
#X coords 0 450 1 449 200 60 0;
#X restore 52 372 pd 2x2crossfade;
#N canvas 656 75 475 382 2x2crossfade 0;
#X obj 22 -81 line 0;
#X obj 85 -194 r \$0-crossfadetime;
#X obj 120 -82 line 1;
#X obj 22 -160 f 5000;
#X obj 22 -39 outlet;
#X obj 120 -41 outlet;
#X obj 176 -228 inlet;
#X msg 22 -120 0 \, 1 \$1;
#X msg 121 -122 1 \, 0 \$1;
#X obj 22 -258 r \$0-startcrossfade;
#X obj 300 -258 r \$0-stopfades;
#X msg 300 -224 0;
#X msg 354 -223 1;
#X connect 0 0 4 0;
#X connect 1 0 3 1;
#X connect 2 0 5 0;
#X connect 3 0 7 0;
#X connect 3 0 8 0;
#X connect 6 0 3 0;
#X connect 7 0 0 0;
#X connect 8 0 2 0;
#X connect 9 0 3 0;
#X connect 10 0 11 0;
#X connect 10 0 12 0;
#X connect 11 0 0 0;
#X connect 12 0 2 0;
#X coords 0 382 1 381 200 60 0;
#X restore 582 375 pd 2x2crossfade;
#X obj -15 35 r \$0-loop;
#N canvas 326 122 1130 869 alternategate 0;
#X obj 315 197 inlet;
#X obj 286 561 outlet;
#X obj 445 563 outlet;
#X obj 419 338 + 1;
#X obj 367 372 % 2;
#X obj 367 338 f 0;
#X obj 304 440 spigot;
#X obj 367 406 == 0;
#X obj 510 404 == 1;
#X obj 447 439 spigot;
#X obj 315 301 t b b;
#X connect 0 0 10 0;
#X connect 3 0 5 1;
#X connect 4 0 7 0;
#X connect 4 0 8 0;
#X connect 5 0 3 0;
#X connect 5 0 4 0;
#X connect 6 0 1 0;
#X connect 7 0 6 1;
#X connect 8 0 9 1;
#X connect 9 0 2 0;
#X connect 10 0 6 0;
#X connect 10 0 9 0;
#X connect 10 1 5 0;
#X restore -16 290 pd alternategate;
#N canvas 618 172 690 620 gate 0;
#X obj 160 118 inlet;
#X obj 257 118 inlet;
#X obj 142 455 outlet;
#X obj 268 450 outlet;
#X obj 225 248 == 0;
#X obj 294 248 == 1;
#X obj 162 337 spigot 1;
#X obj 272 337 spigot 0;
#X connect 0 0 6 0;
#X connect 0 0 7 0;
#X connect 1 0 4 0;
#X connect 1 0 5 0;
#X connect 4 0 6 1;
#X connect 5 0 7 1;
#X connect 6 0 2 0;
#X connect 7 0 3 0;
#X restore -83 123 pd gate;
#X obj -4 122 s \$0-startfadein;
#X obj 61 -29 s \$0-filename;
#X obj 605 416 r \$0-filename;
#X obj 412 41 s \$0-startfadeout;
#X obj 503 80 r \$0-free;
#X obj 503 113 t b b;
#X obj 550 143 s \$0-stopfades;
#X obj -15 563 readsf~ 1;
#X obj 515 559 readsf~ 1;
#X msg 65 528 stop;
#X msg 588 526 stop;
#N canvas 410 82 781 348 selectdamping 0;
#X obj 27 -126 r \$0-dampingfunction;
#X obj 27 -2 s \$0-lineardampingoff;
#X obj 27 -60 t b b;
#X obj 74 -31 s \$0-expdampingon;
#X obj 62 35 t b b;
#X obj 62 93 s \$0-lineardampingon;
#X obj 109 64 s \$0-expdampingoff;
#X obj 27 -91 route 1 2 0;
#X obj 443 56 s \$0-lineardampingoff;
#X obj 409 25 s \$0-expdampingoff;
#X obj 376 -5 t b b b;
#X msg 376 59 1;
#X obj 376 90 s \$0-distancescaling1;
#X obj 27 153 print dampingfunction:;
#X connect 0 0 7 0;
#X connect 0 0 13 0;
#X connect 2 0 1 0;
#X connect 2 1 3 0;
#X connect 4 0 5 0;
#X connect 4 1 6 0;
#X connect 7 0 2 0;
#X connect 7 1 4 0;
#X connect 7 2 10 0;
#X connect 10 0 11 0;
#X connect 10 1 9 0;
#X connect 10 2 8 0;
#X connect 11 0 12 0;
#X restore 669 207 pd selectdamping;
#N canvas 919 150 711 611 calculatedamping 0;
#X obj 39 306 dbtorms;
#X obj 39 438 clip 0 1;
#X obj 40 219 + 1;
#X obj 39 277 expr (100 - $f1);
#X obj 40 9 receive \$0-distance1;
#X obj 39 470 s \$0-distancescaling1;
#X obj 40 190 line;
#X msg 40 161 \$1 10;
#X obj 40 249 expr abs($f2 * log10($f1));
#X obj 40 132 spigot;
#X obj 338 189 spigot;
#X obj 338 248 line;
#X msg 338 219 \$1 10;
#X obj 338 278 expr (1 / $f1);
#X msg 103 98 0;
#X msg 401 157 1;
#X msg 452 156 0;
#X msg 152 97 1;
#X obj 119 217 r \$0-dampingfactor;
#X obj 66 346 r \$0-dampingtrim;
#X obj 116 380 r \$0-dampingmax;
#X obj 77 408 r \$0-dampingmin;
#X obj 401 94 r \$0-lineardampingon;
#X obj 452 124 r \$0-lineardampingoff;
#X obj 152 67 r \$0-expdampingon;
#X obj 103 38 r \$0-expdampingoff;
#X obj 39 375 * 1;
#X connect 0 0 26 0;
#X connect 1 0 5 0;
#X connect 2 0 8 0;
#X connect 3 0 0 0;
#X connect 4 0 10 0;
#X connect 4 0 9 0;
#X connect 6 0 2 0;
#X connect 7 0 6 0;
#X connect 8 0 3 0;
#X connect 9 0 7 0;
#X connect 10 0 12 0;
#X connect 11 0 13 0;
#X connect 12 0 11 0;
#X connect 13 0 26 0;
#X connect 14 0 9 1;
#X connect 15 0 10 1;
#X connect 16 0 10 1;
#X connect 17 0 9 1;
#X connect 18 0 8 1;
#X connect 19 0 26 1;
#X connect 20 0 1 2;
#X connect 21 0 1 1;
#X connect 22 0 15 0;
#X connect 23 0 16 0;
#X connect 24 0 17 0;
#X connect 25 0 14 0;
#X connect 26 0 1 0;
#X restore 639 254 pd calculatedamping;
#X obj 17 -64 r \$0-offset;
#X obj 232 481 r \$0-distancescaling1;
#X obj -51 5 delay 0;
#X obj -51 -65 t b b;
#X obj -51 73 t b b;
#N canvas 118 59 1009 644 2chfadeinfadeout 0;
#X obj 555 -63 f 5000;
#X obj 618 -103 r \$0-fadeouttime;
#X obj 284 240 *~ 0;
#X obj 209 239 *~ 0;
#X text 360 165 fadein;
#X text 437 164 fadeout;
#X obj 313 35 r \$0-fadeintime;
#X obj 250 75 f 1000;
#X obj 209 278 outlet~;
#X obj 284 311 outlet~;
#X obj 42 -139 inlet~;
#X obj 141 -137 inlet~;
#X text 256 -176 bang to start fade;
#X msg 250 115 1 \$1;
#X msg 555 -23 0 \$1;
#X obj 250 164 line 0;
#X obj 250 -140 r \$0-startfadein;
#X obj 555 -144 r \$0-startfadeout;
#X obj 345 74 r \$0-stopfades;
#X msg 345 108 0;
#X msg 313 -39 0;
#X obj 250 -5 spigot;
#X obj 266 -72 r \$0-play;
#X msg 266 -39 1;
#X connect 0 0 14 0;
#X connect 1 0 0 1;
#X connect 2 0 9 0;
#X connect 3 0 8 0;
#X connect 6 0 7 1;
#X connect 7 0 13 0;
#X connect 10 0 3 0;
#X connect 11 0 2 0;
#X connect 13 0 15 0;
#X connect 14 0 15 0;
#X connect 15 0 2 1;
#X connect 15 0 3 1;
#X connect 16 0 21 0;
#X connect 17 0 0 0;
#X connect 17 0 20 0;
#X connect 18 0 19 0;
#X connect 19 0 15 0;
#X connect 20 0 21 1;
#X connect 21 0 7 0;
#X connect 22 0 23 0;
#X connect 23 0 21 1;
#X coords 0 644 1 643 200 60 0;
#X restore -15 671 pd 2chfadeinfadeout;
#N canvas 118 59 1009 644 2chfadeinfadeout 0;
#X obj 555 -63 f 5000;
#X obj 618 -103 r \$0-fadeouttime;
#X obj 284 240 *~ 0;
#X obj 209 239 *~ 0;
#X text 360 165 fadein;
#X text 437 164 fadeout;
#X obj 313 35 r \$0-fadeintime;
#X obj 250 75 f 1000;
#X obj 209 278 outlet~;
#X obj 284 311 outlet~;
#X obj 42 -139 inlet~;
#X obj 141 -137 inlet~;
#X text 256 -176 bang to start fade;
#X msg 250 115 1 \$1;
#X msg 555 -23 0 \$1;
#X obj 250 164 line 0;
#X obj 250 -140 r \$0-startfadein;
#X obj 555 -144 r \$0-startfadeout;
#X obj 345 74 r \$0-stopfades;
#X msg 345 108 0;
#X msg 313 -39 0;
#X obj 250 -5 spigot;
#X obj 266 -72 r \$0-play;
#X msg 266 -39 1;
#X connect 0 0 14 0;
#X connect 1 0 0 1;
#X connect 2 0 9 0;
#X connect 3 0 8 0;
#X connect 6 0 7 1;
#X connect 7 0 13 0;
#X connect 10 0 3 0;
#X connect 11 0 2 0;
#X connect 13 0 15 0;
#X connect 14 0 15 0;
#X connect 15 0 2 1;
#X connect 15 0 3 1;
#X connect 16 0 21 0;
#X connect 17 0 0 0;
#X connect 17 0 20 0;
#X connect 18 0 19 0;
#X connect 19 0 15 0;
#X connect 20 0 21 1;
#X connect 21 0 7 0;
#X connect 22 0 23 0;
#X connect 23 0 21 1;
#X coords 0 644 1 643 200 60 0;
#X restore 515 667 pd 2chfadeinfadeout;
#N canvas 850 244 588 407 firstcrossfademetro 0;
#X obj 196 151 r \$0-firstcrossfade;
#X obj 116 290 metro 3000;
#X msg 116 169 1;
#X obj 83 126 t b b b;
#X obj 213 183 delay 500;
#X obj 149 248 float;
#X obj 260 211 r \$0-crossfadeafter;
#X obj 213 248 float;
#X obj 83 92 inlet;
#X obj 116 345 outlet;
#X obj 314 89 inlet;
#X connect 0 0 5 1;
#X connect 1 0 9 0;
#X connect 2 0 1 0;
#X connect 3 0 4 0;
#X connect 3 1 2 0;
#X connect 3 2 5 0;
#X connect 4 0 7 0;
#X connect 5 0 1 1;
#X connect 6 0 7 1;
#X connect 7 0 1 1;
#X connect 8 0 3 0;
#X connect 10 0 1 0;
#X restore -16 252 pd firstcrossfademetro;
#N canvas 394 34 457 384 generateopenmessage 0;
#X obj 144 63 r \$0-playheadposition;
#X msg 30 242 open \$1 \$2;
#X obj 30 210 list;
#X obj 67 146 r \$0-filename;
#X obj 36 20 inlet;
#X obj 30 274 outlet;
#X obj 67 180 pack s 0;
#X obj 36 49 t b b;
#X obj 181 183 t b;
#X msg 181 215 0;
#X connect 0 0 6 1;
#X connect 1 0 5 0;
#X connect 2 0 1 0;
#X connect 2 0 8 0;
#X connect 3 0 6 0;
#X connect 4 0 7 0;
#X connect 6 0 2 1;
#X connect 7 0 6 0;
#X connect 7 1 2 0;
#X connect 8 0 9 0;
#X connect 9 0 6 1;
#X restore 18 418 pd generateopenmessage;
#X msg 151 -64 stop;
#X connect 2 0 50 0;
#X connect 3 0 59 0;
#X connect 3 0 44 0;
#X connect 6 0 7 0;
#X connect 7 0 5 0;
#X connect 8 0 5 0;
#X connect 9 0 25 0;
#X connect 10 0 26 0;
#X connect 11 0 9 1;
#X connect 11 0 10 1;
#X connect 14 0 51 0;
#X connect 15 0 51 0;
#X connect 16 0 28 0;
#X connect 17 0 27 0;
#X connect 18 0 16 1;
#X connect 18 0 17 1;
#X connect 19 0 63 0;
#X connect 20 0 63 1;
#X connect 21 0 2 0;
#X connect 21 1 64 0;
#X connect 21 2 38 0;
#X connect 22 0 14 0;
#X connect 22 1 24 0;
#X connect 22 2 39 0;
#X connect 23 0 4 0;
#X connect 23 1 7 0;
#X connect 23 1 52 0;
#X connect 23 1 53 0;
#X connect 23 2 20 0;
#X connect 24 0 15 0;
#X connect 25 0 61 1;
#X connect 26 0 61 0;
#X connect 27 0 62 0;
#X connect 28 0 62 1;
#X connect 29 0 23 0;
#X connect 30 0 29 0;
#X connect 30 1 46 0;
#X connect 31 0 29 1;
#X connect 32 0 30 0;
#X connect 32 0 65 0;
#X connect 34 0 13 0;
#X connect 35 0 12 0;
#X connect 36 0 1 0;
#X connect 37 0 0 0;
#X connect 38 0 26 1;
#X connect 38 0 25 1;
#X connect 38 1 27 1;
#X connect 38 1 28 1;
#X connect 39 0 27 1;
#X connect 39 0 28 1;
#X connect 39 1 25 1;
#X connect 39 1 26 1;
#X connect 40 0 42 1;
#X connect 41 0 21 0;
#X connect 41 1 22 0;
#X connect 42 0 21 0;
#X connect 42 1 19 0;
#X connect 45 0 24 1;
#X connect 47 0 48 0;
#X connect 48 0 7 0;
#X connect 48 1 49 0;
#X connect 50 0 10 0;
#X connect 50 0 9 0;
#X connect 51 0 17 0;
#X connect 51 0 16 0;
#X connect 52 0 50 0;
#X connect 56 0 58 1;
#X connect 57 0 37 1;
#X connect 57 0 36 1;
#X connect 57 0 35 1;
#X connect 57 0 34 1;
#X connect 58 0 60 0;
#X connect 59 0 58 0;
#X connect 59 1 8 0;
#X connect 60 0 42 0;
#X connect 60 1 43 0;
#X connect 61 0 37 0;
#X connect 61 1 36 0;
#X connect 62 0 35 0;
#X connect 62 1 34 0;
#X connect 63 0 41 0;
#X connect 64 0 50 0;
#X connect 65 0 58 0;
