#N canvas 522 23 955 1001 16;
#X obj -151 797 throw~ out1;
#X obj -14 796 throw~ out2;
#X obj 424 235 dbtorms;
#X obj 424 264 clip 0 1;
#X obj 424 148 + 1;
#X obj 424 206 expr (100 - $f1);
#X obj -151 720 *~ 0;
#X obj -14 721 *~ 0;
#X obj 425 178 expr abs(30 * log10($f1));
#X obj 424 294 * 2;
#X obj -86 471 delwrite~ \$0-groundreflection 1000;
#N canvas 316 82 1067 900 groundreflection 0;
#X obj 461 316 expr 2 * sqrt( pow( ($f1/2) \, 2) + pow($f2 \, 2) )
;
#X obj 461 346 -;
#X obj 461 207 t f f b;
#X obj 461 376 / 340;
#X obj 461 500 *~ 0;
#X obj 461 470 delread~ \$0-groundreflection 10;
#X obj 531 558 *~ 0;
#X obj 531 498 delread~ \$0-groundreflection 10;
#X obj 461 405 * 1000;
#X obj 461 437 - 5;
#X obj 532 439 + 5;
#X obj -63 346 dbtorms;
#X obj -63 375 clip 0 1;
#X obj -63 259 + 1;
#X obj -63 317 expr (100 - $f1);
#X obj -62 289 expr abs(30 * log10($f1));
#X obj -62 409 * 0.7;
#X obj 461 657 outlet~;
#X obj 117 536 *~ 0;
#X obj 117 473 delread~ \$0-groundreflection 10;
#X obj 531 589 lop~ 5000;
#X obj 461 528 lop~ 6000;
#X obj 117 504 lop~ 8000;
#X msg 928 283 17;
#X obj 461 160 receive \$0-distance1;
#X connect 0 0 1 0;
#X connect 1 0 3 0;
#X connect 2 0 0 0;
#X connect 2 1 1 1;
#X connect 2 2 23 0;
#X connect 3 0 8 0;
#X connect 4 0 21 0;
#X connect 5 0 4 0;
#X connect 6 0 20 0;
#X connect 7 0 6 0;
#X connect 8 0 9 0;
#X connect 8 0 10 0;
#X connect 8 0 19 0;
#X connect 9 0 5 0;
#X connect 10 0 7 0;
#X connect 11 0 12 0;
#X connect 12 0 16 0;
#X connect 12 0 18 1;
#X connect 13 0 15 0;
#X connect 14 0 11 0;
#X connect 15 0 14 0;
#X connect 16 0 4 1;
#X connect 16 0 6 1;
#X connect 18 0 17 0;
#X connect 19 0 22 0;
#X connect 20 0 17 0;
#X connect 21 0 17 0;
#X connect 22 0 18 0;
#X connect 23 0 0 1;
#X connect 24 0 2 0;
#X connect 24 0 13 0;
#X restore -118 503 pd groundreflection;
#X obj -14 758 lop~ 25000;
#X obj -151 757 lop~ 25000;
#N canvas 723 227 554 436 rearlowpass 0;
#X obj -61 337 outlet;
#X obj -61 168 *;
#X obj -61 91 t f f;
#X obj -14 128 >= 0;
#X obj -61 57 expr -sin((($f1+270)%360)*3.141/180);
#X obj -61 200 expr ((1 - pow($f1 \, 0.2)) * 20000) + 2000;
#X obj -61 19 r \$0-azimuth1;
#X connect 1 0 5 0;
#X connect 2 0 1 0;
#X connect 2 1 3 0;
#X connect 3 0 1 1;
#X connect 4 0 2 0;
#X connect 5 0 0 0;
#X connect 6 0 4 0;
#X restore 83 721 pd rearlowpass;
#N canvas 367 99 942 819 latereflections 0;
#X obj -118 558 outlet~;
#X obj -31 558 outlet~;
#X obj -118 492 freeverb~;
#X msg 86 398 wet \$1;
#X msg 108 336 0;
#X msg -118 154 roomsize \$1;
#X msg -75 266 damping \$1;
#X msg -74 223 0.99;
#X obj 85 173 dbtorms;
#X obj 85 202 clip 0 1;
#X obj 85 86 + 1;
#X obj 85 144 expr (100 - $f1);
#X obj 86 116 expr abs(30 * log10($f1));
#X obj -117 25 loadbang;
#X obj -31 386 inlet~;
#X msg -117 110 0.55;
#X obj 85 234 expr (1 / $f1) * (0.00007);
#X obj 85 54 receive \$0-distance1;
#X connect 2 0 0 0;
#X connect 2 1 1 0;
#X connect 3 0 2 0;
#X connect 4 0 3 0;
#X connect 5 0 2 0;
#X connect 6 0 2 0;
#X connect 7 0 6 0;
#X connect 8 0 9 0;
#X connect 9 0 16 0;
#X connect 10 0 12 0;
#X connect 11 0 8 0;
#X connect 12 0 11 0;
#X connect 13 0 15 0;
#X connect 13 0 7 0;
#X connect 13 0 4 0;
#X connect 14 0 2 0;
#X connect 14 0 2 1;
#X connect 15 0 5 0;
#X connect 16 0 3 0;
#X connect 17 0 10 0;
#X restore 99 505 pd latereflections;
#X msg -206 171 start;
#X obj -217 -51 delay 10;
#X obj -187 -158 r \$0-play;
#X obj 168 8 s \$0-playfinished;
#X obj 197 104 switch~;
#X obj 197 40 loadbang;
#X msg 197 72 0;
#X msg -100 -52 1;
#X msg 226 -25 0;
#X obj 168 -92 delay 10;
#X obj 168 -128 t b b;
#X obj 245 -128 r \$0-fadeouttime;
#X obj 168 -162 r \$0-end;
#X obj -187 -93 t b s b b;
#X obj -129 -15 s \$0-startfadein;
#X obj 276 -92 s \$0-startfadeout;
#X obj 378 -59 r \$0-free;
#X obj 378 -26 t b b;
#X obj 425 6 s \$0-stopfades;
#X obj 424 56 receive \$0-distance1;
#X obj 424 323 s \$0-distancescaling1;
#X obj -81 533 r \$0-azimuth1;
#X obj 65 533 r \$0-elevation1;
#X obj -114 686 r \$0-distancescaling1;
#X obj -149 655 earplug~ 270 0;
#X obj 424 116 line;
#X msg 424 87 \$1 50;
#X obj -150 345 *~ 0;
#X msg 121 175 stop;
#X obj 168 -57 t b b b b;
#X obj -53 267 catch~ wrapperbinauralin1;
#X connect 2 0 3 0;
#X connect 3 0 9 0;
#X connect 4 0 8 0;
#X connect 5 0 2 0;
#X connect 6 0 13 0;
#X connect 7 0 12 0;
#X connect 8 0 5 0;
#X connect 9 0 36 0;
#X connect 11 0 40 0;
#X connect 12 0 1 0;
#X connect 13 0 0 0;
#X connect 14 0 13 1;
#X connect 14 0 12 1;
#X connect 15 0 40 0;
#X connect 15 0 6 0;
#X connect 15 1 7 0;
#X connect 17 0 16 0;
#X connect 18 0 29 0;
#X connect 21 0 22 0;
#X connect 22 0 20 0;
#X connect 23 0 20 0;
#X connect 25 0 45 0;
#X connect 26 0 25 0;
#X connect 26 1 31 0;
#X connect 27 0 25 1;
#X connect 28 0 26 0;
#X connect 29 0 17 0;
#X connect 29 2 30 0;
#X connect 29 3 23 0;
#X connect 32 0 33 0;
#X connect 33 0 22 0;
#X connect 33 1 34 0;
#X connect 35 0 42 0;
#X connect 37 0 40 1;
#X connect 38 0 40 2;
#X connect 39 0 6 1;
#X connect 39 0 7 1;
#X connect 40 0 6 0;
#X connect 40 1 7 0;
#X connect 41 0 4 0;
#X connect 42 0 41 0;
#X connect 43 0 10 0;
#X connect 43 0 15 0;
#X connect 43 0 40 0;
#X connect 45 0 19 0;
#X connect 45 1 22 0;
#X connect 45 2 24 0;
#X connect 45 3 44 0;
