#N canvas 5 23 1512 916 8;
#X obj -175 735 throw~ out1;
#X obj -81 736 throw~ out2;
#X obj -175 712 *~ 0;
#X obj -81 712 *~ 0;
#X obj -188 494 delwrite~ \$0-groundreflection 1000;
#N canvas 316 82 1067 900 groundreflection 0;
#X obj 460 316 expr 2 * sqrt( pow( ($f1/2) \, 2) + pow($f2 \, 2) )
;
#X obj 460 346 -;
#X obj 460 207 t f f b;
#X obj 460 376 / 340;
#X obj 460 500 *~ 0;
#X obj 460 470 delread~ \$0-groundreflection 10;
#X obj 530 558 *~ 0;
#X obj 530 498 delread~ \$0-groundreflection 10;
#X obj 460 405 * 1000;
#X obj 460 437 - 5;
#X obj 531 439 + 5;
#X obj -64 346 dbtorms;
#X obj -64 375 clip 0 1;
#X obj -64 259 + 1;
#X obj -64 317 expr (100 - $f1);
#X obj -63 289 expr abs(30 * log10($f1));
#X obj -63 409 * 0.7;
#X obj 460 657 outlet~;
#X obj 116 536 *~ 0;
#X obj 116 473 delread~ \$0-groundreflection 10;
#X obj 530 589 lop~ 5000;
#X obj 460 528 lop~ 6000;
#X obj 116 504 lop~ 8000;
#X msg 927 283 17;
#X obj 460 159 receive \$0-distance1;
#X obj 145 188 switch~;
#X msg 144 146 0;
#X msg 198 146 1;
#X obj 198 115 r \$0-play;
#X obj 144 83 r \$0-playfinished;
#X obj 37 80 loadbang;
#X obj 121 46 r \$0-free;
#X connect 0 0 1 0;
#X connect 1 0 3 0;
#X connect 2 0 0 0;
#X connect 2 1 1 1;
#X connect 2 2 23 0;
#X connect 3 0 8 0;
#X connect 4 0 21 0;
#X connect 5 0 4 0;
#X connect 6 0 20 0;
#X connect 7 0 6 0;
#X connect 8 0 9 0;
#X connect 8 0 10 0;
#X connect 8 0 19 0;
#X connect 9 0 5 0;
#X connect 10 0 7 0;
#X connect 11 0 12 0;
#X connect 12 0 16 0;
#X connect 12 0 18 1;
#X connect 13 0 15 0;
#X connect 14 0 11 0;
#X connect 15 0 14 0;
#X connect 16 0 4 1;
#X connect 16 0 6 1;
#X connect 18 0 17 0;
#X connect 19 0 22 0;
#X connect 20 0 17 0;
#X connect 21 0 17 0;
#X connect 22 0 18 0;
#X connect 23 0 0 1;
#X connect 24 0 2 0;
#X connect 24 0 13 0;
#X connect 26 0 25 0;
#X connect 27 0 25 0;
#X connect 28 0 27 0;
#X connect 29 0 26 0;
#X connect 30 0 26 0;
#X connect 31 0 26 0;
#X restore -188 546 pd groundreflection;
#N canvas 367 99 942 819 latereflections 0;
#X obj -118 558 outlet~;
#X obj -31 558 outlet~;
#X obj -118 492 freeverb~;
#X msg 86 398 wet \$1;
#X msg 85 359 0;
#X msg -118 154 roomsize \$1;
#X msg -75 266 damping \$1;
#X msg -74 223 0.99;
#X obj 85 173 dbtorms;
#X obj 85 202 clip 0 1;
#X obj 85 86 + 1;
#X obj 85 144 expr (100 - $f1);
#X obj 86 116 expr abs(30 * log10($f1));
#X obj -117 25 loadbang;
#X obj -31 386 inlet~;
#X floatatom 106 13 5 0 0 0 - - - 0;
#X floatatom 229 437 30 0 0 0 - - - 0;
#X msg -117 110 0.55;
#X obj 85 234 expr (1 / $f1) * (0.00007);
#X obj 85 54 receive \$0-distance1;
#X obj 435 230 switch~;
#X msg 434 188 0;
#X msg 488 188 1;
#X obj 488 157 r \$0-play;
#X obj 434 125 r \$0-playfinished;
#X obj 327 122 loadbang;
#X obj 411 88 r \$0-free;
#X connect 2 0 0 0;
#X connect 2 1 1 0;
#X connect 3 0 2 0;
#X connect 4 0 3 0;
#X connect 5 0 2 0;
#X connect 6 0 2 0;
#X connect 7 0 6 0;
#X connect 8 0 9 0;
#X connect 9 0 18 0;
#X connect 10 0 12 0;
#X connect 11 0 8 0;
#X connect 12 0 11 0;
#X connect 13 0 17 0;
#X connect 13 0 7 0;
#X connect 13 0 4 0;
#X connect 14 0 2 0;
#X connect 14 0 2 1;
#X connect 15 0 10 0;
#X connect 17 0 5 0;
#X connect 18 0 3 0;
#X connect 18 0 16 0;
#X connect 19 0 10 0;
#X connect 21 0 20 0;
#X connect 22 0 20 0;
#X connect 23 0 22 0;
#X connect 24 0 21 0;
#X connect 25 0 21 0;
#X connect 26 0 21 0;
#X restore -104 521 pd latereflections;
#X msg -154 260 start;
#X obj 178 31 s \$0-playfinished;
#X obj 192 103 switch~;
#X obj 198 55 loadbang;
#X msg 192 79 0;
#X msg 389 266 start;
#X msg 412 232 open \$1;
#X msg 206 5 0;
#X obj -154 149 t b b b;
#X obj 389 158 t b b b;
#X obj 412 208 symbol;
#X obj -154 372 *~ 0;
#X obj 389 369 *~ 0;
#X obj 178 -41 delay 10;
#X obj 178 -66 t b b;
#X obj 231 -65 r \$0-fadeouttime;
#X obj 178 -132 r \$0-end;
#N canvas 656 75 470 293 2x2crossfade 0;
#X obj 24 -189 line 0;
#X obj 81 -308 r \$0-crossfadetime;
#X obj 123 -190 line 1;
#X obj 24 -268 f 5000;
#X obj 24 -147 outlet;
#X obj 123 -149 outlet;
#X obj 224 -348 inlet;
#X msg 24 -228 0 \, 1 \$1;
#X msg 123 -230 1 \, 0 \$1;
#X obj 24 -349 r \$0-startcrossfade;
#X obj 291 -349 r \$0-stopfades;
#X msg 291 -314 0;
#X msg 344 -314 1;
#X connect 0 0 4 0;
#X connect 1 0 3 1;
#X connect 2 0 5 0;
#X connect 3 0 7 0;
#X connect 3 0 8 0;
#X connect 6 0 3 0;
#X connect 7 0 0 0;
#X connect 8 0 2 0;
#X connect 9 0 3 0;
#X connect 10 0 11 0;
#X connect 10 0 12 0;
#X connect 11 0 0 0;
#X connect 12 0 2 0;
#X coords 0 293 1 292 200 60 0;
#X restore -108 178 pd 2x2crossfade;
#N canvas 656 75 475 382 2x2crossfade 0;
#X obj 19 -162 line 0;
#X obj 76 -281 r \$0-crossfadetime;
#X obj 118 -164 line 1;
#X obj 19 -241 f 5000;
#X obj 19 -120 outlet;
#X obj 118 -123 outlet;
#X obj 219 -321 inlet;
#X msg 19 -201 0 \, 1 \$1;
#X msg 118 -203 1 \, 0 \$1;
#X obj 19 -322 r \$0-startcrossfade;
#X obj 295 -321 r \$0-stopfades;
#X msg 295 -286 0;
#X msg 348 -286 1;
#X connect 0 0 4 0;
#X connect 1 0 3 1;
#X connect 2 0 5 0;
#X connect 3 0 7 0;
#X connect 3 0 8 0;
#X connect 6 0 3 0;
#X connect 7 0 0 0;
#X connect 8 0 2 0;
#X connect 9 0 3 0;
#X connect 10 0 11 0;
#X connect 10 0 12 0;
#X connect 11 0 0 0;
#X connect 12 0 2 0;
#X coords 0 382 1 381 200 60 0;
#X restore 435 182 pd 2x2crossfade;
#X obj -154 -15 r \$0-loop;
#N canvas 326 122 1130 869 alternategate 0;
#X obj 315 197 inlet;
#X obj 286 561 outlet;
#X obj 445 563 outlet;
#X obj 419 338 + 1;
#X obj 367 372 % 2;
#X obj 367 338 f 0;
#X obj 304 440 spigot;
#X obj 367 406 == 0;
#X obj 510 404 == 1;
#X obj 447 439 spigot;
#X obj 315 301 t b b;
#X connect 0 0 10 0;
#X connect 3 0 5 1;
#X connect 4 0 7 0;
#X connect 4 0 8 0;
#X connect 5 0 3 0;
#X connect 5 0 4 0;
#X connect 6 0 1 0;
#X connect 7 0 6 1;
#X connect 8 0 9 1;
#X connect 9 0 2 0;
#X connect 10 0 6 0;
#X connect 10 0 9 0;
#X connect 10 1 5 0;
#X restore -154 123 pd alternategate;
#N canvas 618 172 690 620 gate 0;
#X obj 160 118 inlet;
#X obj 257 118 inlet;
#X obj 142 455 outlet;
#X obj 268 450 outlet;
#X obj 225 248 == 0;
#X obj 294 248 == 1;
#X obj 162 337 spigot 1;
#X obj 272 337 spigot 0;
#X connect 0 0 6 0;
#X connect 0 0 7 0;
#X connect 1 0 4 0;
#X connect 1 0 5 0;
#X connect 4 0 6 1;
#X connect 5 0 7 1;
#X connect 6 0 2 0;
#X connect 7 0 3 0;
#X restore -186 42 pd gate;
#X obj 92 254 r \$0-gain;
#X obj -148 67 s \$0-startfadein;
#X obj 439 158 r \$0-filename;
#X obj 242 -40 s \$0-startfadeout;
#X obj 290 -15 r \$0-free;
#X obj 290 8 t b b;
#X obj 322 31 s \$0-stopfades;
#X obj 438 368 *~ 0;
#X obj -97 372 *~ 0;
#X obj 80 731 throw~ out1;
#X obj 176 730 throw~ out2;
#X obj 80 700 *~ 0;
#X obj 176 702 *~ 0;
#N canvas 316 82 1067 900 groundreflection 0;
#X obj 460 316 expr 2 * sqrt( pow( ($f1/2) \, 2) + pow($f2 \, 2) )
;
#X obj 460 346 -;
#X obj 460 207 t f f b;
#X obj 460 376 / 340;
#X obj 460 500 *~ 0;
#X obj 530 558 *~ 0;
#X obj 460 405 * 1000;
#X obj 460 437 - 5;
#X obj 531 439 + 5;
#X obj -64 346 dbtorms;
#X obj -64 375 clip 0 1;
#X obj -64 259 + 1;
#X obj -64 317 expr (100 - $f1);
#X obj -63 289 expr abs(30 * log10($f1));
#X obj -63 409 * 0.7;
#X obj 460 657 outlet~;
#X obj 116 536 *~ 0;
#X obj 530 589 lop~ 5000;
#X obj 460 528 lop~ 6000;
#X obj 116 504 lop~ 8000;
#X msg 927 283 17;
#X obj 116 473 delread~ \$0-groundreflection2 10;
#X obj 460 470 delread~ \$0-groundreflection2 10;
#X obj 530 498 delread~ \$0-groundreflection2 10;
#X obj 460 160 receive \$0-distance2;
#X obj 155 198 switch~;
#X msg 154 156 0;
#X msg 208 156 1;
#X obj 208 125 r \$0-play;
#X obj 154 93 r \$0-playfinished;
#X obj 47 90 loadbang;
#X obj 131 56 r \$0-free;
#X connect 0 0 1 0;
#X connect 1 0 3 0;
#X connect 2 0 0 0;
#X connect 2 1 1 1;
#X connect 2 2 20 0;
#X connect 3 0 6 0;
#X connect 4 0 18 0;
#X connect 5 0 17 0;
#X connect 6 0 7 0;
#X connect 6 0 8 0;
#X connect 6 0 21 0;
#X connect 7 0 22 0;
#X connect 8 0 23 0;
#X connect 9 0 10 0;
#X connect 10 0 14 0;
#X connect 10 0 16 1;
#X connect 11 0 13 0;
#X connect 12 0 9 0;
#X connect 13 0 12 0;
#X connect 14 0 4 1;
#X connect 14 0 5 1;
#X connect 16 0 15 0;
#X connect 17 0 15 0;
#X connect 18 0 15 0;
#X connect 19 0 16 0;
#X connect 20 0 0 1;
#X connect 21 0 19 0;
#X connect 22 0 4 0;
#X connect 23 0 5 0;
#X connect 24 0 2 0;
#X connect 24 0 11 0;
#X connect 26 0 25 0;
#X connect 27 0 25 0;
#X connect 28 0 27 0;
#X connect 29 0 26 0;
#X connect 30 0 26 0;
#X connect 31 0 26 0;
#X restore 23 543 pd groundreflection;
#N canvas 367 99 942 819 latereflections 0;
#X obj -118 558 outlet~;
#X obj -31 558 outlet~;
#X obj -118 492 freeverb~;
#X msg 86 398 wet \$1;
#X msg 85 359 0;
#X msg -118 154 roomsize \$1;
#X msg -75 266 damping \$1;
#X msg -74 223 0.99;
#X obj 85 173 dbtorms;
#X obj 85 202 clip 0 1;
#X obj 85 86 + 1;
#X obj 85 144 expr (100 - $f1);
#X obj 86 116 expr abs(30 * log10($f1));
#X obj -117 25 loadbang;
#X obj -31 386 inlet~;
#X floatatom 106 13 5 0 0 0 - - - 0;
#X floatatom 229 437 30 0 0 0 - - - 0;
#X msg -117 110 0.55;
#X obj 85 234 expr (1 / $f1) * (0.00007);
#X obj 85 54 receive \$0-distance2;
#X obj 445 240 switch~;
#X msg 444 198 0;
#X msg 498 198 1;
#X obj 498 167 r \$0-play;
#X obj 444 135 r \$0-playfinished;
#X obj 337 132 loadbang;
#X obj 421 98 r \$0-free;
#X connect 2 0 0 0;
#X connect 2 1 1 0;
#X connect 3 0 2 0;
#X connect 4 0 3 0;
#X connect 5 0 2 0;
#X connect 6 0 2 0;
#X connect 7 0 6 0;
#X connect 8 0 9 0;
#X connect 9 0 18 0;
#X connect 10 0 12 0;
#X connect 11 0 8 0;
#X connect 12 0 11 0;
#X connect 13 0 17 0;
#X connect 13 0 7 0;
#X connect 13 0 4 0;
#X connect 14 0 2 0;
#X connect 14 0 2 1;
#X connect 15 0 10 0;
#X connect 17 0 5 0;
#X connect 18 0 3 0;
#X connect 18 0 16 0;
#X connect 19 0 10 0;
#X connect 21 0 20 0;
#X connect 22 0 20 0;
#X connect 23 0 22 0;
#X connect 24 0 21 0;
#X connect 25 0 21 0;
#X connect 26 0 21 0;
#X restore 131 518 pd latereflections;
#X obj 24 492 delwrite~ \$0-groundreflection2 1000;
#X obj 119 577 r \$0-azimuth2;
#X obj 158 616 r \$0-elevation2;
#X obj 101 673 r \$0-distancescaling2;
#X obj 633 250 r \$0-gain;
#X obj 486 368 *~ 0;
#X obj 536 369 *~ 0;
#X obj 593 369 *~ 0;
#X obj -44 371 *~ 0;
#X obj 6 372 *~ 0;
#X obj 54 372 *~ 0;
#X obj 305 726 throw~ out1;
#X obj 396 726 throw~ out2;
#X obj 305 695 *~ 0;
#X obj 406 696 *~ 0;
#N canvas 316 82 1067 900 groundreflection 0;
#X obj 460 316 expr 2 * sqrt( pow( ($f1/2) \, 2) + pow($f2 \, 2) )
;
#X obj 460 346 -;
#X obj 460 207 t f f b;
#X obj 460 376 / 340;
#X obj 460 500 *~ 0;
#X obj 530 558 *~ 0;
#X obj 460 405 * 1000;
#X obj 460 437 - 5;
#X obj 531 439 + 5;
#X obj -64 346 dbtorms;
#X obj -64 375 clip 0 1;
#X obj -64 259 + 1;
#X obj -64 317 expr (100 - $f1);
#X obj -63 289 expr abs(30 * log10($f1));
#X obj -63 409 * 0.7;
#X obj 460 657 outlet~;
#X obj 116 536 *~ 0;
#X obj 530 589 lop~ 5000;
#X obj 460 528 lop~ 6000;
#X obj 116 504 lop~ 8000;
#X msg 927 283 17;
#X obj 460 160 receive \$0-distance3;
#X obj 460 470 delread~ \$0-groundreflection3 10;
#X obj 530 498 delread~ \$0-groundreflection3 10;
#X obj 116 473 delread~ \$0-groundreflection3 10;
#X obj 165 208 switch~;
#X msg 164 166 0;
#X msg 218 166 1;
#X obj 218 135 r \$0-play;
#X obj 164 103 r \$0-playfinished;
#X obj 57 100 loadbang;
#X obj 141 66 r \$0-free;
#X connect 0 0 1 0;
#X connect 1 0 3 0;
#X connect 2 0 0 0;
#X connect 2 1 1 1;
#X connect 2 2 20 0;
#X connect 3 0 6 0;
#X connect 4 0 18 0;
#X connect 5 0 17 0;
#X connect 6 0 7 0;
#X connect 6 0 8 0;
#X connect 6 0 24 0;
#X connect 7 0 22 0;
#X connect 8 0 23 0;
#X connect 9 0 10 0;
#X connect 10 0 14 0;
#X connect 10 0 16 1;
#X connect 11 0 13 0;
#X connect 12 0 9 0;
#X connect 13 0 12 0;
#X connect 14 0 4 1;
#X connect 14 0 5 1;
#X connect 16 0 15 0;
#X connect 17 0 15 0;
#X connect 18 0 15 0;
#X connect 19 0 16 0;
#X connect 20 0 0 1;
#X connect 21 0 2 0;
#X connect 21 0 11 0;
#X connect 22 0 4 0;
#X connect 23 0 5 0;
#X connect 24 0 19 0;
#X connect 26 0 25 0;
#X connect 27 0 25 0;
#X connect 28 0 27 0;
#X connect 29 0 26 0;
#X connect 30 0 26 0;
#X connect 31 0 26 0;
#X restore 248 541 pd groundreflection;
#N canvas 367 99 942 819 latereflections 0;
#X obj -118 558 outlet~;
#X obj -31 558 outlet~;
#X obj -118 492 freeverb~;
#X msg 86 398 wet \$1;
#X msg 85 359 0;
#X msg -118 154 roomsize \$1;
#X msg -75 266 damping \$1;
#X msg -74 223 0.99;
#X obj 85 173 dbtorms;
#X obj 85 202 clip 0 1;
#X obj 85 86 + 1;
#X obj 85 144 expr (100 - $f1);
#X obj 86 116 expr abs(30 * log10($f1));
#X obj -117 25 loadbang;
#X obj -31 386 inlet~;
#X floatatom 106 13 5 0 0 0 - - - 0;
#X floatatom 229 437 30 0 0 0 - - - 0;
#X msg -117 110 0.55;
#X obj 85 234 expr (1 / $f1) * (0.00007);
#X obj 85 54 receive \$0-distance3;
#X obj 455 250 switch~;
#X msg 454 208 0;
#X msg 508 208 1;
#X obj 508 177 r \$0-play;
#X obj 454 145 r \$0-playfinished;
#X obj 347 142 loadbang;
#X obj 431 108 r \$0-free;
#X connect 2 0 0 0;
#X connect 2 1 1 0;
#X connect 3 0 2 0;
#X connect 4 0 3 0;
#X connect 5 0 2 0;
#X connect 6 0 2 0;
#X connect 7 0 6 0;
#X connect 8 0 9 0;
#X connect 9 0 18 0;
#X connect 10 0 12 0;
#X connect 11 0 8 0;
#X connect 12 0 11 0;
#X connect 13 0 17 0;
#X connect 13 0 7 0;
#X connect 13 0 4 0;
#X connect 14 0 2 0;
#X connect 14 0 2 1;
#X connect 15 0 10 0;
#X connect 17 0 5 0;
#X connect 18 0 3 0;
#X connect 18 0 16 0;
#X connect 19 0 10 0;
#X connect 21 0 20 0;
#X connect 22 0 20 0;
#X connect 23 0 22 0;
#X connect 24 0 21 0;
#X connect 25 0 21 0;
#X connect 26 0 21 0;
#X restore 356 511 pd latereflections;
#X obj 249 487 delwrite~ \$0-groundreflection3 1000;
#X obj 330 560 r \$0-azimuth3;
#X obj 369 599 r \$0-elevation3;
#X obj 326 667 r \$0-distancescaling3;
#X obj 533 726 throw~ out1;
#X obj 617 727 throw~ out2;
#X obj 533 689 *~ 0;
#X obj 617 694 *~ 0;
#N canvas 316 82 1067 900 groundreflection 0;
#X obj 460 316 expr 2 * sqrt( pow( ($f1/2) \, 2) + pow($f2 \, 2) )
;
#X obj 460 346 -;
#X obj 460 207 t f f b;
#X obj 460 376 / 340;
#X obj 460 500 *~ 0;
#X obj 530 558 *~ 0;
#X obj 460 405 * 1000;
#X obj 460 437 - 5;
#X obj 531 439 + 5;
#X obj -64 346 dbtorms;
#X obj -64 375 clip 0 1;
#X obj -64 259 + 1;
#X obj -64 317 expr (100 - $f1);
#X obj -63 289 expr abs(30 * log10($f1));
#X obj -63 409 * 0.7;
#X obj 460 657 outlet~;
#X obj 116 536 *~ 0;
#X obj 530 589 lop~ 5000;
#X obj 460 528 lop~ 6000;
#X obj 116 504 lop~ 8000;
#X msg 927 283 17;
#X obj 460 160 receive \$0-distance4;
#X obj 116 473 delread~ \$0-groundreflection4 10;
#X obj 460 470 delread~ \$0-groundreflection4 10;
#X obj 530 498 delread~ \$0-groundreflection4 10;
#X obj 175 218 switch~;
#X msg 174 176 0;
#X msg 228 176 1;
#X obj 228 145 r \$0-play;
#X obj 174 113 r \$0-playfinished;
#X obj 67 110 loadbang;
#X obj 151 76 r \$0-free;
#X connect 0 0 1 0;
#X connect 1 0 3 0;
#X connect 2 0 0 0;
#X connect 2 1 1 1;
#X connect 2 2 20 0;
#X connect 3 0 6 0;
#X connect 4 0 18 0;
#X connect 5 0 17 0;
#X connect 6 0 7 0;
#X connect 6 0 8 0;
#X connect 6 0 22 0;
#X connect 7 0 23 0;
#X connect 8 0 24 0;
#X connect 9 0 10 0;
#X connect 10 0 14 0;
#X connect 10 0 16 1;
#X connect 11 0 13 0;
#X connect 12 0 9 0;
#X connect 13 0 12 0;
#X connect 14 0 4 1;
#X connect 14 0 5 1;
#X connect 16 0 15 0;
#X connect 17 0 15 0;
#X connect 18 0 15 0;
#X connect 19 0 16 0;
#X connect 20 0 0 1;
#X connect 21 0 2 0;
#X connect 21 0 11 0;
#X connect 22 0 19 0;
#X connect 23 0 4 0;
#X connect 24 0 5 0;
#X connect 26 0 25 0;
#X connect 27 0 25 0;
#X connect 28 0 27 0;
#X connect 29 0 26 0;
#X connect 30 0 26 0;
#X connect 31 0 26 0;
#X restore 476 538 pd groundreflection;
#N canvas 367 99 942 819 latereflections 0;
#X obj -118 558 outlet~;
#X obj -31 558 outlet~;
#X obj -118 492 freeverb~;
#X msg 86 398 wet \$1;
#X msg 85 359 0;
#X msg -118 154 roomsize \$1;
#X msg -75 266 damping \$1;
#X msg -74 223 0.99;
#X obj 85 173 dbtorms;
#X obj 85 202 clip 0 1;
#X obj 85 86 + 1;
#X obj 85 144 expr (100 - $f1);
#X obj 86 116 expr abs(30 * log10($f1));
#X obj -117 25 loadbang;
#X obj -31 386 inlet~;
#X floatatom 106 13 5 0 0 0 - - - 0;
#X floatatom 229 437 30 0 0 0 - - - 0;
#X msg -117 110 0.55;
#X obj 85 234 expr (1 / $f1) * (0.00007);
#X obj 85 54 receive \$0-distance4;
#X obj 465 260 switch~;
#X msg 464 218 0;
#X msg 518 218 1;
#X obj 518 187 r \$0-play;
#X obj 464 155 r \$0-playfinished;
#X obj 357 152 loadbang;
#X obj 441 117 r \$0-free;
#X connect 2 0 0 0;
#X connect 2 1 1 0;
#X connect 3 0 2 0;
#X connect 4 0 3 0;
#X connect 5 0 2 0;
#X connect 6 0 2 0;
#X connect 7 0 6 0;
#X connect 8 0 9 0;
#X connect 9 0 18 0;
#X connect 10 0 12 0;
#X connect 11 0 8 0;
#X connect 12 0 11 0;
#X connect 13 0 17 0;
#X connect 13 0 7 0;
#X connect 13 0 4 0;
#X connect 14 0 2 0;
#X connect 14 0 2 1;
#X connect 15 0 10 0;
#X connect 17 0 5 0;
#X connect 18 0 3 0;
#X connect 18 0 16 0;
#X connect 19 0 10 0;
#X connect 21 0 20 0;
#X connect 22 0 20 0;
#X connect 23 0 22 0;
#X connect 24 0 21 0;
#X connect 25 0 21 0;
#X connect 26 0 21 0;
#X restore 588 512 pd latereflections;
#X obj 477 484 delwrite~ \$0-groundreflection4 1000;
#X obj 565 564 r \$0-azimuth4;
#X obj 603 601 r \$0-elevation4;
#X obj 554 664 r \$0-distancescaling4;
#X obj 753 720 throw~ out1;
#X obj 844 721 throw~ out2;
#X obj 752 693 *~ 0;
#X obj 844 695 *~ 0;
#N canvas 316 82 1067 900 groundreflection 0;
#X obj 460 316 expr 2 * sqrt( pow( ($f1/2) \, 2) + pow($f2 \, 2) )
;
#X obj 460 346 -;
#X obj 460 207 t f f b;
#X obj 460 376 / 340;
#X obj 460 500 *~ 0;
#X obj 530 558 *~ 0;
#X obj 460 405 * 1000;
#X obj 460 437 - 5;
#X obj 531 439 + 5;
#X obj -64 346 dbtorms;
#X obj -64 375 clip 0 1;
#X obj -64 259 + 1;
#X obj -64 317 expr (100 - $f1);
#X obj -63 289 expr abs(30 * log10($f1));
#X obj -63 409 * 0.7;
#X obj 460 657 outlet~;
#X obj 116 536 *~ 0;
#X obj 530 589 lop~ 5000;
#X obj 460 528 lop~ 6000;
#X obj 116 504 lop~ 8000;
#X msg 927 283 17;
#X obj 460 160 receive \$0-distance5;
#X obj 116 473 delread~ \$0-groundreflection5 10;
#X obj 460 470 delread~ \$0-groundreflection5 10;
#X obj 530 498 delread~ \$0-groundreflection5 10;
#X obj 185 228 switch~;
#X msg 184 186 0;
#X msg 238 186 1;
#X obj 238 155 r \$0-play;
#X obj 184 123 r \$0-playfinished;
#X obj 77 120 loadbang;
#X obj 161 86 r \$0-free;
#X connect 0 0 1 0;
#X connect 1 0 3 0;
#X connect 2 0 0 0;
#X connect 2 1 1 1;
#X connect 2 2 20 0;
#X connect 3 0 6 0;
#X connect 4 0 18 0;
#X connect 5 0 17 0;
#X connect 6 0 7 0;
#X connect 6 0 8 0;
#X connect 6 0 22 0;
#X connect 7 0 23 0;
#X connect 8 0 24 0;
#X connect 9 0 10 0;
#X connect 10 0 14 0;
#X connect 10 0 16 1;
#X connect 11 0 13 0;
#X connect 12 0 9 0;
#X connect 13 0 12 0;
#X connect 14 0 4 1;
#X connect 14 0 5 1;
#X connect 16 0 15 0;
#X connect 17 0 15 0;
#X connect 18 0 15 0;
#X connect 19 0 16 0;
#X connect 20 0 0 1;
#X connect 21 0 2 0;
#X connect 21 0 11 0;
#X connect 22 0 19 0;
#X connect 23 0 4 0;
#X connect 24 0 5 0;
#X connect 26 0 25 0;
#X connect 27 0 25 0;
#X connect 28 0 27 0;
#X connect 29 0 26 0;
#X connect 30 0 26 0;
#X connect 31 0 26 0;
#X restore 695 532 pd groundreflection;
#N canvas 367 99 942 819 latereflections 0;
#X obj -118 558 outlet~;
#X obj -31 558 outlet~;
#X obj -118 492 freeverb~;
#X msg 86 398 wet \$1;
#X msg 85 359 0;
#X msg -118 154 roomsize \$1;
#X msg -75 266 damping \$1;
#X msg -74 223 0.99;
#X obj 85 173 dbtorms;
#X obj 85 202 clip 0 1;
#X obj 85 86 + 1;
#X obj 85 144 expr (100 - $f1);
#X obj 86 116 expr abs(30 * log10($f1));
#X obj -117 25 loadbang;
#X obj -31 386 inlet~;
#X floatatom 106 13 5 0 0 0 - - - 0;
#X floatatom 229 437 30 0 0 0 - - - 0;
#X msg -117 110 0.55;
#X obj 85 234 expr (1 / $f1) * (0.00007);
#X obj 85 54 receive \$0-distance5;
#X obj 475 270 switch~;
#X msg 474 228 0;
#X msg 528 228 1;
#X obj 528 197 r \$0-play;
#X obj 474 165 r \$0-playfinished;
#X obj 367 162 loadbang;
#X obj 451 128 r \$0-free;
#X connect 2 0 0 0;
#X connect 2 1 1 0;
#X connect 3 0 2 0;
#X connect 4 0 3 0;
#X connect 5 0 2 0;
#X connect 6 0 2 0;
#X connect 7 0 6 0;
#X connect 8 0 9 0;
#X connect 9 0 18 0;
#X connect 10 0 12 0;
#X connect 11 0 8 0;
#X connect 12 0 11 0;
#X connect 13 0 17 0;
#X connect 13 0 7 0;
#X connect 13 0 4 0;
#X connect 14 0 2 0;
#X connect 14 0 2 1;
#X connect 15 0 10 0;
#X connect 17 0 5 0;
#X connect 18 0 3 0;
#X connect 18 0 16 0;
#X connect 19 0 10 0;
#X connect 21 0 20 0;
#X connect 22 0 20 0;
#X connect 23 0 22 0;
#X connect 24 0 21 0;
#X connect 25 0 21 0;
#X connect 26 0 21 0;
#X restore 807 507 pd latereflections;
#X obj 696 481 delwrite~ \$0-groundreflection5 1000;
#X obj 777 561 r \$0-azimuth5;
#X obj 817 582 r \$0-elevation5;
#X obj 777 661 r \$0-distancescaling5;
#X obj -133 576 r \$0-azimuth1;
#X obj -94 622 r \$0-elevation1;
#X obj -150 684 r \$0-distancescaling1;
#X obj -154 346 *~ 0;
#X obj -97 346 *~ 0;
#X obj -44 346 *~ 0;
#X obj 6 347 *~ 0;
#X obj 54 347 *~ 0;
#X obj 389 343 *~ 0;
#X obj 438 343 *~ 0;
#X obj 486 343 *~ 0;
#X obj 536 344 *~ 0;
#X obj 594 345 *~ 0;
#X msg -99 258 stop;
#X msg 441 265 stop;
#X obj 178 -17 t b b b b;
#X obj 639 370 *~ 0;
#X obj 640 346 *~ 0;
#X obj 109 370 *~ 0;
#X obj 109 345 *~ 0;
#N canvas 410 82 929 477 selectdamping 0;
#X obj 27 -126 r \$0-dampingfunction;
#X obj 27 -2 s \$0-lineardampingoff;
#X obj 27 -60 t b b;
#X obj 74 -31 s \$0-expdampingon;
#X obj 62 35 t b b;
#X obj 62 93 s \$0-lineardampingon;
#X obj 109 64 s \$0-expdampingoff;
#X obj 27 -91 route 1 2 0;
#X obj 443 56 s \$0-lineardampingoff;
#X obj 409 25 s \$0-expdampingoff;
#X obj 376 -5 t b b b;
#X msg 376 59 1;
#X obj 376 90 s \$0-distancescaling1;
#X obj 392 115 s \$0-distancescaling2;
#X obj 431 136 s \$0-distancescaling3;
#X obj 447 161 s \$0-distancescaling4;
#X obj 485 185 s \$0-distancescaling5;
#X obj 501 210 s \$0-distancescaling6;
#X obj 540 234 s \$0-distancescaling7;
#X connect 0 0 7 0;
#X connect 2 0 1 0;
#X connect 2 1 3 0;
#X connect 4 0 5 0;
#X connect 4 1 6 0;
#X connect 7 0 2 0;
#X connect 7 1 4 0;
#X connect 7 2 10 0;
#X connect 10 0 11 0;
#X connect 10 1 9 0;
#X connect 10 2 8 0;
#X connect 11 0 12 0;
#X connect 11 0 13 0;
#X connect 11 0 14 0;
#X connect 11 0 15 0;
#X connect 11 0 16 0;
#X connect 11 0 17 0;
#X connect 11 0 18 0;
#X restore 453 -71 pd selectdamping;
#X obj -170 -132 r \$0-play;
#X msg -148 -77 1;
#X obj -115 -76 s \$0-filename;
#X obj -170 -101 t b b;
#X obj -137 -101 r \$0-offset;
#X obj -170 -53 delay 0;
#X obj -170 11 t b b;
#N canvas 118 59 1009 644 2chfadeinfadeout 0;
#X obj 555 -63 f 5000;
#X obj 618 -103 r \$0-fadeouttime;
#X obj 284 240 *~ 0;
#X obj 209 239 *~ 0;
#X text 360 165 fadein;
#X text 437 164 fadeout;
#X obj 313 35 r \$0-fadeintime;
#X obj 250 75 f 1000;
#X obj 209 278 outlet~;
#X obj 284 311 outlet~;
#X obj 42 -139 inlet~;
#X obj 141 -137 inlet~;
#X text 256 -176 bang to start fade;
#X msg 250 115 1 \$1;
#X msg 555 -23 0 \$1;
#X obj 250 164 line 0;
#X obj 250 -140 r \$0-startfadein;
#X obj 555 -144 r \$0-startfadeout;
#X obj 345 74 r \$0-stopfades;
#X msg 345 108 0;
#X msg 313 -39 0;
#X obj 250 -5 spigot;
#X obj 266 -72 r \$0-play;
#X msg 266 -39 1;
#X connect 0 0 14 0;
#X connect 1 0 0 1;
#X connect 2 0 9 0;
#X connect 3 0 8 0;
#X connect 6 0 7 1;
#X connect 7 0 13 0;
#X connect 10 0 3 0;
#X connect 11 0 2 0;
#X connect 13 0 15 0;
#X connect 14 0 15 0;
#X connect 15 0 2 1;
#X connect 15 0 3 1;
#X connect 16 0 21 0;
#X connect 17 0 0 0;
#X connect 17 0 20 0;
#X connect 18 0 19 0;
#X connect 19 0 15 0;
#X connect 20 0 21 1;
#X connect 21 0 7 0;
#X connect 22 0 23 0;
#X connect 23 0 21 1;
#X coords 0 644 1 643 200 60 0;
#X restore -184 443 pd 2chfadeinfadeout;
#N canvas 118 59 1009 644 2chfadeinfadeout 0;
#X obj 555 -63 f 5000;
#X obj 618 -103 r \$0-fadeouttime;
#X obj 284 240 *~ 0;
#X obj 209 239 *~ 0;
#X text 360 165 fadein;
#X text 437 164 fadeout;
#X obj 313 35 r \$0-fadeintime;
#X obj 250 75 f 1000;
#X obj 209 278 outlet~;
#X obj 284 311 outlet~;
#X obj 42 -139 inlet~;
#X obj 141 -137 inlet~;
#X text 256 -176 bang to start fade;
#X msg 250 115 1 \$1;
#X msg 555 -23 0 \$1;
#X obj 250 164 line 0;
#X obj 250 -140 r \$0-startfadein;
#X obj 555 -144 r \$0-startfadeout;
#X obj 345 74 r \$0-stopfades;
#X msg 345 108 0;
#X msg 313 -39 0;
#X obj 250 -5 spigot;
#X obj 266 -72 r \$0-play;
#X msg 266 -39 1;
#X connect 0 0 14 0;
#X connect 1 0 0 1;
#X connect 2 0 9 0;
#X connect 3 0 8 0;
#X connect 6 0 7 1;
#X connect 7 0 13 0;
#X connect 10 0 3 0;
#X connect 11 0 2 0;
#X connect 13 0 15 0;
#X connect 14 0 15 0;
#X connect 15 0 2 1;
#X connect 15 0 3 1;
#X connect 16 0 21 0;
#X connect 17 0 0 0;
#X connect 17 0 20 0;
#X connect 18 0 19 0;
#X connect 19 0 15 0;
#X connect 20 0 21 1;
#X connect 21 0 7 0;
#X connect 22 0 23 0;
#X connect 23 0 21 1;
#X coords 0 644 1 643 200 60 0;
#X restore 19 445 pd 2chfadeinfadeout;
#N canvas 118 59 1009 644 2chfadeinfadeout 0;
#X obj 555 -63 f 5000;
#X obj 618 -103 r \$0-fadeouttime;
#X obj 284 240 *~ 0;
#X obj 209 239 *~ 0;
#X text 360 165 fadein;
#X text 437 164 fadeout;
#X obj 313 35 r \$0-fadeintime;
#X obj 250 75 f 1000;
#X obj 209 278 outlet~;
#X obj 284 311 outlet~;
#X obj 42 -139 inlet~;
#X obj 141 -137 inlet~;
#X text 256 -176 bang to start fade;
#X msg 250 115 1 \$1;
#X msg 555 -23 0 \$1;
#X obj 250 164 line 0;
#X obj 250 -140 r \$0-startfadein;
#X obj 555 -144 r \$0-startfadeout;
#X obj 345 74 r \$0-stopfades;
#X msg 345 108 0;
#X msg 313 -39 0;
#X obj 250 -5 spigot;
#X obj 266 -72 r \$0-play;
#X msg 266 -39 1;
#X connect 0 0 14 0;
#X connect 1 0 0 1;
#X connect 2 0 9 0;
#X connect 3 0 8 0;
#X connect 6 0 7 1;
#X connect 7 0 13 0;
#X connect 10 0 3 0;
#X connect 11 0 2 0;
#X connect 13 0 15 0;
#X connect 14 0 15 0;
#X connect 15 0 2 1;
#X connect 15 0 3 1;
#X connect 16 0 21 0;
#X connect 17 0 0 0;
#X connect 17 0 20 0;
#X connect 18 0 19 0;
#X connect 19 0 15 0;
#X connect 20 0 21 1;
#X connect 21 0 7 0;
#X connect 22 0 23 0;
#X connect 23 0 21 1;
#X coords 0 644 1 643 200 60 0;
#X restore 249 448 pd 2chfadeinfadeout;
#N canvas 118 59 1009 644 2chfadeinfadeout 0;
#X obj 555 -63 f 5000;
#X obj 618 -103 r \$0-fadeouttime;
#X obj 284 240 *~ 0;
#X obj 209 239 *~ 0;
#X text 360 165 fadein;
#X text 437 164 fadeout;
#X obj 313 35 r \$0-fadeintime;
#X obj 250 75 f 1000;
#X obj 209 278 outlet~;
#X obj 284 311 outlet~;
#X obj 42 -139 inlet~;
#X obj 141 -137 inlet~;
#X text 256 -176 bang to start fade;
#X msg 250 115 1 \$1;
#X msg 555 -23 0 \$1;
#X obj 250 164 line 0;
#X obj 250 -140 r \$0-startfadein;
#X obj 555 -144 r \$0-startfadeout;
#X obj 345 74 r \$0-stopfades;
#X msg 345 108 0;
#X msg 313 -39 0;
#X obj 250 -5 spigot;
#X obj 266 -72 r \$0-play;
#X msg 266 -39 1;
#X connect 0 0 14 0;
#X connect 1 0 0 1;
#X connect 2 0 9 0;
#X connect 3 0 8 0;
#X connect 6 0 7 1;
#X connect 7 0 13 0;
#X connect 10 0 3 0;
#X connect 11 0 2 0;
#X connect 13 0 15 0;
#X connect 14 0 15 0;
#X connect 15 0 2 1;
#X connect 15 0 3 1;
#X connect 16 0 21 0;
#X connect 17 0 0 0;
#X connect 17 0 20 0;
#X connect 18 0 19 0;
#X connect 19 0 15 0;
#X connect 20 0 21 1;
#X connect 21 0 7 0;
#X connect 22 0 23 0;
#X connect 23 0 21 1;
#X coords 0 644 1 643 200 60 0;
#X restore 472 443 pd 2chfadeinfadeout;
#N canvas 118 59 1009 644 2chfadeinfadeout 0;
#X obj 555 -63 f 5000;
#X obj 618 -103 r \$0-fadeouttime;
#X obj 284 240 *~ 0;
#X obj 209 239 *~ 0;
#X text 360 165 fadein;
#X text 437 164 fadeout;
#X obj 313 35 r \$0-fadeintime;
#X obj 250 75 f 1000;
#X obj 209 278 outlet~;
#X obj 284 311 outlet~;
#X obj 42 -139 inlet~;
#X obj 141 -137 inlet~;
#X text 256 -176 bang to start fade;
#X msg 250 115 1 \$1;
#X msg 555 -23 0 \$1;
#X obj 250 164 line 0;
#X obj 250 -140 r \$0-startfadein;
#X obj 555 -144 r \$0-startfadeout;
#X obj 345 74 r \$0-stopfades;
#X msg 345 108 0;
#X msg 313 -39 0;
#X obj 250 -5 spigot;
#X obj 266 -72 r \$0-play;
#X msg 266 -39 1;
#X connect 0 0 14 0;
#X connect 1 0 0 1;
#X connect 2 0 9 0;
#X connect 3 0 8 0;
#X connect 6 0 7 1;
#X connect 7 0 13 0;
#X connect 10 0 3 0;
#X connect 11 0 2 0;
#X connect 13 0 15 0;
#X connect 14 0 15 0;
#X connect 15 0 2 1;
#X connect 15 0 3 1;
#X connect 16 0 21 0;
#X connect 17 0 0 0;
#X connect 17 0 20 0;
#X connect 18 0 19 0;
#X connect 19 0 15 0;
#X connect 20 0 21 1;
#X connect 21 0 7 0;
#X connect 22 0 23 0;
#X connect 23 0 21 1;
#X coords 0 644 1 643 200 60 0;
#X restore 699 447 pd 2chfadeinfadeout;
#N canvas 771 265 909 758 binaural256vs 0;
#X obj 87 82 inlet~;
#X obj 187 82 inlet;
#X obj 307 86 inlet;
#X obj 225 215 outlet~;
#X obj 102 216 outlet~;
#X obj 50 154 rwa_binauralsimple~ 256 fabian_dir256.txt, f 47;
#X obj 247 315 block~ 256;
#X connect 0 0 5 0;
#X connect 1 0 5 1;
#X connect 2 0 5 2;
#X connect 5 0 4 0;
#X connect 5 1 3 0;
#X restore -171 641 pd binaural256vs;
#N canvas 771 265 909 758 binaural256vs 0;
#X obj 87 82 inlet~;
#X obj 187 82 inlet;
#X obj 307 86 inlet;
#X obj 225 215 outlet~;
#X obj 102 216 outlet~;
#X obj 50 154 rwa_binauralsimple~ 256 fabian_dir256.txt, f 47;
#X obj 247 315 block~ 256;
#X connect 0 0 5 0;
#X connect 1 0 5 1;
#X connect 2 0 5 2;
#X connect 5 0 4 0;
#X connect 5 1 3 0;
#X restore 81 636 pd binaural256vs;
#N canvas 771 265 909 758 binaural256vs 0;
#X obj 87 82 inlet~;
#X obj 187 82 inlet;
#X obj 307 86 inlet;
#X obj 225 215 outlet~;
#X obj 102 216 outlet~;
#X obj 50 154 rwa_binauralsimple~ 256 fabian_dir256.txt, f 47;
#X obj 247 315 block~ 256;
#X connect 0 0 5 0;
#X connect 1 0 5 1;
#X connect 2 0 5 2;
#X connect 5 0 4 0;
#X connect 5 1 3 0;
#X restore 292 618 pd binaural256vs;
#N canvas 771 265 909 758 binaural256vs 0;
#X obj 87 82 inlet~;
#X obj 187 82 inlet;
#X obj 307 86 inlet;
#X obj 225 215 outlet~;
#X obj 102 216 outlet~;
#X obj 50 154 rwa_binauralsimple~ 256 fabian_dir256.txt, f 47;
#X obj 247 315 block~ 256;
#X connect 0 0 5 0;
#X connect 1 0 5 1;
#X connect 2 0 5 2;
#X connect 5 0 4 0;
#X connect 5 1 3 0;
#X restore 526 621 pd binaural256vs;
#N canvas 771 265 909 758 binaural256vs 0;
#X obj 87 82 inlet~;
#X obj 187 82 inlet;
#X obj 307 86 inlet;
#X obj 225 215 outlet~;
#X obj 102 216 outlet~;
#X obj 50 154 rwa_binauralsimple~ 256 fabian_dir256.txt, f 47;
#X obj 247 315 block~ 256;
#X connect 0 0 5 0;
#X connect 1 0 5 1;
#X connect 2 0 5 2;
#X connect 5 0 4 0;
#X connect 5 1 3 0;
#X restore 739 613 pd binaural256vs;
#X obj 964 726 throw~ out1;
#X obj 1048 727 throw~ out2;
#X obj 964 689 *~ 0;
#X obj 1048 694 *~ 0;
#N canvas 316 82 1067 900 groundreflection 0;
#X obj 460 316 expr 2 * sqrt( pow( ($f1/2) \, 2) + pow($f2 \, 2) )
;
#X obj 460 346 -;
#X obj 460 207 t f f b;
#X obj 460 376 / 340;
#X obj 460 500 *~ 0;
#X obj 530 558 *~ 0;
#X obj 460 405 * 1000;
#X obj 460 437 - 5;
#X obj 531 439 + 5;
#X obj -64 346 dbtorms;
#X obj -64 375 clip 0 1;
#X obj -64 259 + 1;
#X obj -64 317 expr (100 - $f1);
#X obj -63 289 expr abs(30 * log10($f1));
#X obj -63 409 * 0.7;
#X obj 460 657 outlet~;
#X obj 116 536 *~ 0;
#X obj 530 589 lop~ 5000;
#X obj 460 528 lop~ 6000;
#X obj 116 504 lop~ 8000;
#X msg 927 283 17;
#X obj 175 218 switch~;
#X msg 174 176 0;
#X msg 228 176 1;
#X obj 228 145 r \$0-play;
#X obj 174 113 r \$0-playfinished;
#X obj 67 110 loadbang;
#X obj 151 76 r \$0-free;
#X obj 460 160 receive \$0-distance6;
#X obj 116 473 delread~ \$0-groundreflection6 10;
#X obj 460 470 delread~ \$0-groundreflection6 10;
#X obj 530 498 delread~ \$0-groundreflection6 10;
#X connect 0 0 1 0;
#X connect 1 0 3 0;
#X connect 2 0 0 0;
#X connect 2 1 1 1;
#X connect 2 2 20 0;
#X connect 3 0 6 0;
#X connect 4 0 18 0;
#X connect 5 0 17 0;
#X connect 6 0 7 0;
#X connect 6 0 8 0;
#X connect 6 0 29 0;
#X connect 7 0 30 0;
#X connect 8 0 31 0;
#X connect 9 0 10 0;
#X connect 10 0 14 0;
#X connect 10 0 16 1;
#X connect 11 0 13 0;
#X connect 12 0 9 0;
#X connect 13 0 12 0;
#X connect 14 0 4 1;
#X connect 14 0 5 1;
#X connect 16 0 15 0;
#X connect 17 0 15 0;
#X connect 18 0 15 0;
#X connect 19 0 16 0;
#X connect 20 0 0 1;
#X connect 22 0 21 0;
#X connect 23 0 21 0;
#X connect 24 0 23 0;
#X connect 25 0 22 0;
#X connect 26 0 22 0;
#X connect 27 0 22 0;
#X connect 28 0 2 0;
#X connect 28 0 11 0;
#X connect 29 0 19 0;
#X connect 30 0 4 0;
#X connect 31 0 5 0;
#X restore 907 538 pd groundreflection;
#N canvas 367 99 942 819 latereflections 0;
#X obj -118 558 outlet~;
#X obj -31 558 outlet~;
#X obj -118 492 freeverb~;
#X msg 86 398 wet \$1;
#X msg 85 359 0;
#X msg -118 154 roomsize \$1;
#X msg -75 266 damping \$1;
#X msg -74 223 0.99;
#X obj 85 173 dbtorms;
#X obj 85 202 clip 0 1;
#X obj 85 86 + 1;
#X obj 85 144 expr (100 - $f1);
#X obj 86 116 expr abs(30 * log10($f1));
#X obj -117 25 loadbang;
#X obj -31 386 inlet~;
#X floatatom 106 13 5 0 0 0 - - - 0;
#X floatatom 229 437 30 0 0 0 - - - 0;
#X msg -117 110 0.55;
#X obj 85 234 expr (1 / $f1) * (0.00007);
#X obj 465 260 switch~;
#X msg 464 218 0;
#X msg 518 218 1;
#X obj 518 187 r \$0-play;
#X obj 464 155 r \$0-playfinished;
#X obj 357 152 loadbang;
#X obj 441 117 r \$0-free;
#X obj 85 54 receive \$0-distance6;
#X connect 2 0 0 0;
#X connect 2 1 1 0;
#X connect 3 0 2 0;
#X connect 4 0 3 0;
#X connect 5 0 2 0;
#X connect 6 0 2 0;
#X connect 7 0 6 0;
#X connect 8 0 9 0;
#X connect 9 0 18 0;
#X connect 10 0 12 0;
#X connect 11 0 8 0;
#X connect 12 0 11 0;
#X connect 13 0 17 0;
#X connect 13 0 7 0;
#X connect 13 0 4 0;
#X connect 14 0 2 0;
#X connect 14 0 2 1;
#X connect 15 0 10 0;
#X connect 17 0 5 0;
#X connect 18 0 3 0;
#X connect 18 0 16 0;
#X connect 20 0 19 0;
#X connect 21 0 19 0;
#X connect 22 0 21 0;
#X connect 23 0 20 0;
#X connect 24 0 20 0;
#X connect 25 0 20 0;
#X connect 26 0 10 0;
#X restore 1019 512 pd latereflections;
#X obj 1184 720 throw~ out1;
#X obj 1275 721 throw~ out2;
#X obj 1183 693 *~ 0;
#X obj 1275 695 *~ 0;
#N canvas 316 82 1067 900 groundreflection 0;
#X obj 461 316 expr 2 * sqrt( pow( ($f1/2) \, 2) + pow($f2 \, 2) )
;
#X obj 461 346 -;
#X obj 461 207 t f f b;
#X obj 461 376 / 340;
#X obj 461 500 *~ 0;
#X obj 531 558 *~ 0;
#X obj 461 405 * 1000;
#X obj 461 437 - 5;
#X obj 532 439 + 5;
#X obj -63 346 dbtorms;
#X obj -63 375 clip 0 1;
#X obj -63 259 + 1;
#X obj -63 317 expr (100 - $f1);
#X obj -62 289 expr abs(30 * log10($f1));
#X obj -62 409 * 0.7;
#X obj 461 657 outlet~;
#X obj 117 536 *~ 0;
#X obj 531 589 lop~ 5000;
#X obj 461 528 lop~ 6000;
#X obj 117 504 lop~ 8000;
#X msg 928 283 17;
#X obj 186 228 switch~;
#X msg 185 186 0;
#X msg 239 186 1;
#X obj 239 155 r \$0-play;
#X obj 185 123 r \$0-playfinished;
#X obj 78 120 loadbang;
#X obj 162 86 r \$0-free;
#X obj 461 160 receive \$0-distance7;
#X obj 117 473 delread~ \$0-groundreflection7 10;
#X obj 461 470 delread~ \$0-groundreflection7 10;
#X obj 531 498 delread~ \$0-groundreflection7 10;
#X connect 0 0 1 0;
#X connect 1 0 3 0;
#X connect 2 0 0 0;
#X connect 2 1 1 1;
#X connect 2 2 20 0;
#X connect 3 0 6 0;
#X connect 4 0 18 0;
#X connect 5 0 17 0;
#X connect 6 0 7 0;
#X connect 6 0 8 0;
#X connect 6 0 29 0;
#X connect 7 0 30 0;
#X connect 8 0 31 0;
#X connect 9 0 10 0;
#X connect 10 0 14 0;
#X connect 10 0 16 1;
#X connect 11 0 13 0;
#X connect 12 0 9 0;
#X connect 13 0 12 0;
#X connect 14 0 4 1;
#X connect 14 0 5 1;
#X connect 16 0 15 0;
#X connect 17 0 15 0;
#X connect 18 0 15 0;
#X connect 19 0 16 0;
#X connect 20 0 0 1;
#X connect 22 0 21 0;
#X connect 23 0 21 0;
#X connect 24 0 23 0;
#X connect 25 0 22 0;
#X connect 26 0 22 0;
#X connect 27 0 22 0;
#X connect 28 0 2 0;
#X connect 28 0 11 0;
#X connect 29 0 19 0;
#X connect 30 0 4 0;
#X connect 31 0 5 0;
#X restore 1126 532 pd groundreflection;
#N canvas 367 99 942 819 latereflections 0;
#X obj -118 558 outlet~;
#X obj -31 558 outlet~;
#X obj -118 492 freeverb~;
#X msg 86 398 wet \$1;
#X msg 85 359 0;
#X msg -118 154 roomsize \$1;
#X msg -75 266 damping \$1;
#X msg -74 223 0.99;
#X obj 85 173 dbtorms;
#X obj 85 202 clip 0 1;
#X obj 85 86 + 1;
#X obj 85 144 expr (100 - $f1);
#X obj 86 116 expr abs(30 * log10($f1));
#X obj -117 25 loadbang;
#X obj -31 386 inlet~;
#X floatatom 106 13 5 0 0 0 - - - 0;
#X floatatom 229 437 30 0 0 0 - - - 0;
#X msg -117 110 0.55;
#X obj 85 234 expr (1 / $f1) * (0.00007);
#X obj 475 270 switch~;
#X msg 474 228 0;
#X msg 528 228 1;
#X obj 528 197 r \$0-play;
#X obj 474 165 r \$0-playfinished;
#X obj 367 162 loadbang;
#X obj 451 128 r \$0-free;
#X obj 85 54 receive \$0-distance7;
#X connect 2 0 0 0;
#X connect 2 1 1 0;
#X connect 3 0 2 0;
#X connect 4 0 3 0;
#X connect 5 0 2 0;
#X connect 6 0 2 0;
#X connect 7 0 6 0;
#X connect 8 0 9 0;
#X connect 9 0 18 0;
#X connect 10 0 12 0;
#X connect 11 0 8 0;
#X connect 12 0 11 0;
#X connect 13 0 17 0;
#X connect 13 0 7 0;
#X connect 13 0 4 0;
#X connect 14 0 2 0;
#X connect 14 0 2 1;
#X connect 15 0 10 0;
#X connect 17 0 5 0;
#X connect 18 0 3 0;
#X connect 18 0 16 0;
#X connect 20 0 19 0;
#X connect 21 0 19 0;
#X connect 22 0 21 0;
#X connect 23 0 20 0;
#X connect 24 0 20 0;
#X connect 25 0 20 0;
#X connect 26 0 10 0;
#X restore 1238 507 pd latereflections;
#N canvas 118 59 1009 644 2chfadeinfadeout 0;
#X obj 555 -63 f 5000;
#X obj 618 -103 r \$0-fadeouttime;
#X obj 284 240 *~ 0;
#X obj 209 239 *~ 0;
#X text 360 165 fadein;
#X text 437 164 fadeout;
#X obj 313 35 r \$0-fadeintime;
#X obj 250 75 f 1000;
#X obj 209 278 outlet~;
#X obj 284 311 outlet~;
#X obj 42 -139 inlet~;
#X obj 141 -137 inlet~;
#X text 256 -176 bang to start fade;
#X msg 250 115 1 \$1;
#X msg 555 -23 0 \$1;
#X obj 250 164 line 0;
#X obj 250 -140 r \$0-startfadein;
#X obj 555 -144 r \$0-startfadeout;
#X obj 345 74 r \$0-stopfades;
#X msg 345 108 0;
#X msg 313 -39 0;
#X obj 250 -5 spigot;
#X obj 266 -72 r \$0-play;
#X msg 266 -39 1;
#X connect 0 0 14 0;
#X connect 1 0 0 1;
#X connect 2 0 9 0;
#X connect 3 0 8 0;
#X connect 6 0 7 1;
#X connect 7 0 13 0;
#X connect 10 0 3 0;
#X connect 11 0 2 0;
#X connect 13 0 15 0;
#X connect 14 0 15 0;
#X connect 15 0 2 1;
#X connect 15 0 3 1;
#X connect 16 0 21 0;
#X connect 17 0 0 0;
#X connect 17 0 20 0;
#X connect 18 0 19 0;
#X connect 19 0 15 0;
#X connect 20 0 21 1;
#X connect 21 0 7 0;
#X connect 22 0 23 0;
#X connect 23 0 21 1;
#X coords 0 644 1 643 200 60 0;
#X restore 903 443 pd 2chfadeinfadeout;
#N canvas 118 59 1009 644 2chfadeinfadeout 0;
#X obj 555 -63 f 5000;
#X obj 618 -103 r \$0-fadeouttime;
#X obj 284 240 *~ 0;
#X obj 209 239 *~ 0;
#X text 360 165 fadein;
#X text 437 164 fadeout;
#X obj 313 35 r \$0-fadeintime;
#X obj 250 75 f 1000;
#X obj 209 278 outlet~;
#X obj 284 311 outlet~;
#X obj 42 -139 inlet~;
#X obj 141 -137 inlet~;
#X text 256 -176 bang to start fade;
#X msg 250 115 1 \$1;
#X msg 555 -23 0 \$1;
#X obj 250 164 line 0;
#X obj 250 -140 r \$0-startfadein;
#X obj 555 -144 r \$0-startfadeout;
#X obj 345 74 r \$0-stopfades;
#X msg 345 108 0;
#X msg 313 -39 0;
#X obj 250 -5 spigot;
#X obj 266 -72 r \$0-play;
#X msg 266 -39 1;
#X connect 0 0 14 0;
#X connect 1 0 0 1;
#X connect 2 0 9 0;
#X connect 3 0 8 0;
#X connect 6 0 7 1;
#X connect 7 0 13 0;
#X connect 10 0 3 0;
#X connect 11 0 2 0;
#X connect 13 0 15 0;
#X connect 14 0 15 0;
#X connect 15 0 2 1;
#X connect 15 0 3 1;
#X connect 16 0 21 0;
#X connect 17 0 0 0;
#X connect 17 0 20 0;
#X connect 18 0 19 0;
#X connect 19 0 15 0;
#X connect 20 0 21 1;
#X connect 21 0 7 0;
#X connect 22 0 23 0;
#X connect 23 0 21 1;
#X coords 0 644 1 643 200 60 0;
#X restore 1130 447 pd 2chfadeinfadeout;
#N canvas 771 265 909 758 binaural256vs 0;
#X obj 87 82 inlet~;
#X obj 187 82 inlet;
#X obj 307 86 inlet;
#X obj 225 215 outlet~;
#X obj 102 216 outlet~;
#X obj 50 154 rwa_binauralsimple~ 256 fabian_dir256.txt, f 47;
#X obj 247 315 block~ 256;
#X connect 0 0 5 0;
#X connect 1 0 5 1;
#X connect 2 0 5 2;
#X connect 5 0 4 0;
#X connect 5 1 3 0;
#X restore 957 621 pd binaural256vs;
#N canvas 771 265 909 758 binaural256vs 0;
#X obj 87 82 inlet~;
#X obj 187 82 inlet;
#X obj 307 86 inlet;
#X obj 225 215 outlet~;
#X obj 102 216 outlet~;
#X obj 50 154 rwa_binauralsimple~ 256 fabian_dir256.txt, f 47;
#X obj 247 315 block~ 256;
#X connect 0 0 5 0;
#X connect 1 0 5 1;
#X connect 2 0 5 2;
#X connect 5 0 4 0;
#X connect 5 1 3 0;
#X restore 1170 613 pd binaural256vs;
#X obj 1023 554 r \$0-azimuth6;
#X obj 1032 587 r \$0-elevation6;
#X obj 1208 561 r \$0-azimuth7;
#X obj 1248 582 r \$0-elevation7;
#X obj 985 664 r \$0-distancescaling6;
#X obj 1208 661 r \$0-distancescaling7;
#X obj 908 484 delwrite~ \$0-groundreflection6 1000;
#X obj 1127 481 delwrite~ \$0-groundreflection7 1000;
#X obj -153 298 readsf~ 7;
#X obj 389 294 readsf~ 7;
#X obj 674 370 *~ 0;
#X obj 675 346 *~ 0;
#X obj 146 370 *~ 0;
#X obj 146 345 *~ 0;
#N canvas 801 150 711 611 calculatedamping6 0;
#X obj 39 306 dbtorms;
#X obj 39 438 clip 0 1;
#X obj 40 219 + 1;
#X obj 39 277 expr (100 - $f1);
#X obj 40 190 line;
#X obj 40 249 expr abs($f2 * log10($f1));
#X obj 40 132 spigot;
#X obj 338 189 spigot;
#X obj 338 248 line;
#X msg 338 219 \$1 10;
#X obj 338 278 expr (1 / $f1);
#X msg 97 98 0;
#X msg 395 157 1;
#X msg 446 156 0;
#X msg 146 97 1;
#X obj 119 217 r \$0-dampingfactor;
#X obj 66 346 r \$0-dampingtrim;
#X obj 116 380 r \$0-dampingmax;
#X obj 77 408 r \$0-dampingmin;
#X obj 395 94 r \$0-lineardampingon;
#X obj 446 124 r \$0-lineardampingoff;
#X obj 146 67 r \$0-expdampingon;
#X obj 97 38 r \$0-expdampingoff;
#X obj 39 375 * 1;
#X obj 40 9 receive \$0-distance6;
#X obj 39 470 s \$0-distancescaling6;
#X obj 40 162 pack 100 10;
#X obj 95 133 receive \$0-smoothdist;
#X connect 0 0 23 0;
#X connect 1 0 25 0;
#X connect 2 0 5 0;
#X connect 3 0 0 0;
#X connect 4 0 2 0;
#X connect 5 0 3 0;
#X connect 6 0 26 0;
#X connect 7 0 9 0;
#X connect 8 0 10 0;
#X connect 9 0 8 0;
#X connect 10 0 23 0;
#X connect 11 0 6 1;
#X connect 12 0 7 1;
#X connect 13 0 7 1;
#X connect 14 0 6 1;
#X connect 15 0 5 1;
#X connect 16 0 23 1;
#X connect 17 0 1 2;
#X connect 18 0 1 1;
#X connect 19 0 12 0;
#X connect 20 0 13 0;
#X connect 21 0 14 0;
#X connect 22 0 11 0;
#X connect 23 0 1 0;
#X connect 24 0 7 0;
#X connect 24 0 6 0;
#X connect 26 0 4 0;
#X connect 27 0 26 1;
#X restore 590 -36 pd calculatedamping6;
#N canvas 801 150 711 611 calculatedamping7 0;
#X obj 39 306 dbtorms;
#X obj 39 438 clip 0 1;
#X obj 40 219 + 1;
#X obj 39 277 expr (100 - $f1);
#X obj 40 190 line;
#X obj 40 249 expr abs($f2 * log10($f1));
#X obj 40 132 spigot;
#X obj 338 189 spigot;
#X obj 338 248 line;
#X msg 338 219 \$1 10;
#X obj 338 278 expr (1 / $f1);
#X msg 97 98 0;
#X msg 395 157 1;
#X msg 446 156 0;
#X msg 146 97 1;
#X obj 119 217 r \$0-dampingfactor;
#X obj 66 346 r \$0-dampingtrim;
#X obj 116 380 r \$0-dampingmax;
#X obj 77 408 r \$0-dampingmin;
#X obj 395 94 r \$0-lineardampingon;
#X obj 446 124 r \$0-lineardampingoff;
#X obj 146 67 r \$0-expdampingon;
#X obj 97 38 r \$0-expdampingoff;
#X obj 39 375 * 1;
#X obj 40 9 receive \$0-distance7;
#X obj 39 470 s \$0-distancescaling7;
#X obj 41 165 pack 100 10;
#X obj 90 138 receive \$0-smoothdist;
#X connect 0 0 23 0;
#X connect 1 0 25 0;
#X connect 2 0 5 0;
#X connect 3 0 0 0;
#X connect 4 0 2 0;
#X connect 5 0 3 0;
#X connect 6 0 26 0;
#X connect 7 0 9 0;
#X connect 8 0 10 0;
#X connect 9 0 8 0;
#X connect 10 0 23 0;
#X connect 11 0 6 1;
#X connect 12 0 7 1;
#X connect 13 0 7 1;
#X connect 14 0 6 1;
#X connect 15 0 5 1;
#X connect 16 0 23 1;
#X connect 17 0 1 2;
#X connect 18 0 1 1;
#X connect 19 0 12 0;
#X connect 20 0 13 0;
#X connect 21 0 14 0;
#X connect 22 0 11 0;
#X connect 23 0 1 0;
#X connect 24 0 7 0;
#X connect 24 0 6 0;
#X connect 26 0 4 0;
#X connect 27 0 26 1;
#X restore 590 -7 pd calculatedamping7;
#X obj 897 272 + 180;
#X obj 897 253 expr 360 -$f1 \;;
#X obj 564 602 + 180;
#X obj 565 582 expr 360 -$f1 \;;
#X obj 119 617 + 180;
#X obj 119 596 expr 360 -$f1 \;;
#X obj 724 586 + 180;
#X obj 728 562 expr 360 -$f1 \;;
#X obj -133 620 + 180;
#X obj -133 597 expr 360 -$f1 \;;
#X obj 330 598 + 180;
#X obj 330 578 expr 360 -$f1 \;;
#X obj 921 212 + 180;
#X obj 922 188 expr 360 -$f1 \;;
#N canvas 394 34 457 384 generateopenmessage 0;
#X obj 144 63 r \$0-playheadposition;
#X msg 30 242 open \$1 \$2;
#X obj 30 210 list;
#X obj 67 146 r \$0-filename;
#X obj 36 20 inlet;
#X obj 30 274 outlet;
#X obj 67 180 pack s 0;
#X obj 36 49 t b b;
#X obj 181 183 t b;
#X msg 181 215 0;
#X connect 0 0 6 1;
#X connect 1 0 5 0;
#X connect 2 0 1 0;
#X connect 2 0 8 0;
#X connect 3 0 6 0;
#X connect 4 0 7 0;
#X connect 6 0 2 1;
#X connect 7 0 6 0;
#X connect 7 1 2 0;
#X connect 8 0 9 0;
#X connect 9 0 6 1;
#X restore -137 220 pd generateopenmessage;
#N canvas 850 244 588 407 firstcrossfademetro 0;
#X obj 196 151 r \$0-firstcrossfade;
#X obj 116 290 metro 3000;
#X msg 116 169 1;
#X obj 83 126 t b b b;
#X obj 213 183 delay 500;
#X obj 149 248 float;
#X obj 260 211 r \$0-crossfadeafter;
#X obj 213 248 float;
#X obj 83 92 inlet;
#X obj 116 345 outlet;
#X obj 314 89 inlet;
#X connect 0 0 5 1;
#X connect 1 0 9 0;
#X connect 2 0 1 0;
#X connect 3 0 4 0;
#X connect 3 1 2 0;
#X connect 3 2 5 0;
#X connect 4 0 7 0;
#X connect 5 0 1 1;
#X connect 6 0 7 1;
#X connect 7 0 1 1;
#X connect 8 0 3 0;
#X connect 10 0 1 0;
#X restore -154 96 pd firstcrossfademetro;
#X msg -68 -102 stop;
#N canvas 801 150 711 611 calculatedamping2 0;
#X obj 39 306 dbtorms;
#X obj 39 438 clip 0 1;
#X obj 40 219 + 1;
#X obj 39 277 expr (100 - $f1);
#X obj 40 190 line;
#X obj 40 249 expr abs($f2 * log10($f1));
#X obj 40 132 spigot;
#X obj 338 189 spigot;
#X obj 338 248 line;
#X msg 338 219 \$1 10;
#X obj 338 278 expr (1 / $f1);
#X msg 97 98 0;
#X msg 395 157 1;
#X msg 446 156 0;
#X msg 146 97 1;
#X obj 119 217 r \$0-dampingfactor;
#X obj 66 346 r \$0-dampingtrim;
#X obj 116 380 r \$0-dampingmax;
#X obj 77 408 r \$0-dampingmin;
#X obj 395 94 r \$0-lineardampingon;
#X obj 446 124 r \$0-lineardampingoff;
#X obj 146 67 r \$0-expdampingon;
#X obj 97 38 r \$0-expdampingoff;
#X obj 39 375 * 1;
#X obj 40 9 receive \$0-distance2;
#X obj 39 470 s \$0-distancescaling2;
#X obj 40 160 pack 100 10;
#X obj 103 135 receive \$0-smoothdist;
#X connect 0 0 23 0;
#X connect 1 0 25 0;
#X connect 2 0 5 0;
#X connect 3 0 0 0;
#X connect 4 0 2 0;
#X connect 5 0 3 0;
#X connect 6 0 26 0;
#X connect 7 0 9 0;
#X connect 8 0 10 0;
#X connect 9 0 8 0;
#X connect 10 0 23 0;
#X connect 11 0 6 1;
#X connect 12 0 7 1;
#X connect 13 0 7 1;
#X connect 14 0 6 1;
#X connect 15 0 5 1;
#X connect 16 0 23 1;
#X connect 17 0 1 2;
#X connect 18 0 1 1;
#X connect 19 0 12 0;
#X connect 20 0 13 0;
#X connect 21 0 14 0;
#X connect 22 0 11 0;
#X connect 23 0 1 0;
#X connect 24 0 7 0;
#X connect 24 0 6 0;
#X connect 26 0 4 0;
#X connect 27 0 26 1;
#X restore 455 -3 pd calculatedamping2;
#N canvas 571 79 711 611 calculatedamping1 0;
#X obj 39 306 dbtorms;
#X obj 39 438 clip 0 1;
#X obj 40 219 + 1;
#X obj 39 277 expr (100 - $f1);
#X obj 40 9 receive \$0-distance1;
#X obj 39 470 s \$0-distancescaling1;
#X obj 40 190 line;
#X obj 40 249 expr abs($f2 * log10($f1));
#X obj 41 125 spigot;
#X obj 338 189 spigot;
#X obj 338 248 line;
#X msg 338 219 \$1 10;
#X obj 338 278 expr (1 / $f1);
#X msg 97 98 0;
#X msg 395 157 1;
#X msg 446 156 0;
#X msg 146 97 1;
#X obj 119 217 r \$0-dampingfactor;
#X obj 66 346 r \$0-dampingtrim;
#X obj 116 380 r \$0-dampingmax;
#X obj 77 408 r \$0-dampingmin;
#X obj 395 94 r \$0-lineardampingon;
#X obj 446 124 r \$0-lineardampingoff;
#X obj 146 67 r \$0-expdampingon;
#X obj 97 38 r \$0-expdampingoff;
#X obj 39 375 * 1;
#X obj 41 159 pack 100 10;
#X obj 105 137 receive \$0-smoothdist;
#X connect 0 0 25 0;
#X connect 1 0 5 0;
#X connect 2 0 7 0;
#X connect 3 0 0 0;
#X connect 4 0 9 0;
#X connect 4 0 8 0;
#X connect 6 0 2 0;
#X connect 7 0 3 0;
#X connect 8 0 26 0;
#X connect 9 0 11 0;
#X connect 10 0 12 0;
#X connect 11 0 10 0;
#X connect 12 0 25 0;
#X connect 13 0 8 1;
#X connect 14 0 9 1;
#X connect 15 0 9 1;
#X connect 16 0 8 1;
#X connect 17 0 7 1;
#X connect 18 0 25 1;
#X connect 19 0 1 2;
#X connect 20 0 1 1;
#X connect 21 0 14 0;
#X connect 22 0 15 0;
#X connect 23 0 16 0;
#X connect 24 0 13 0;
#X connect 25 0 1 0;
#X connect 26 0 6 0;
#X connect 27 0 26 1;
#X restore 455 -34 pd calculatedamping1;
#N canvas 801 150 711 611 calculatedamping3 0;
#X obj 39 306 dbtorms;
#X obj 39 438 clip 0 1;
#X obj 40 219 + 1;
#X obj 39 277 expr (100 - $f1);
#X obj 40 190 line;
#X obj 40 249 expr abs($f2 * log10($f1));
#X obj 40 132 spigot;
#X obj 338 189 spigot;
#X obj 338 248 line;
#X msg 338 219 \$1 10;
#X obj 338 278 expr (1 / $f1);
#X msg 97 98 0;
#X msg 395 157 1;
#X msg 446 156 0;
#X msg 146 97 1;
#X obj 119 217 r \$0-dampingfactor;
#X obj 66 346 r \$0-dampingtrim;
#X obj 116 380 r \$0-dampingmax;
#X obj 77 408 r \$0-dampingmin;
#X obj 395 94 r \$0-lineardampingon;
#X obj 446 124 r \$0-lineardampingoff;
#X obj 146 67 r \$0-expdampingon;
#X obj 97 38 r \$0-expdampingoff;
#X obj 39 375 * 1;
#X obj 40 9 receive \$0-distance3;
#X obj 39 470 s \$0-distancescaling3;
#X obj 40 160 pack 100 10;
#X obj 103 135 receive \$0-smoothdist;
#X connect 0 0 23 0;
#X connect 1 0 25 0;
#X connect 2 0 5 0;
#X connect 3 0 0 0;
#X connect 4 0 2 0;
#X connect 5 0 3 0;
#X connect 6 0 26 0;
#X connect 7 0 9 0;
#X connect 8 0 10 0;
#X connect 9 0 8 0;
#X connect 10 0 23 0;
#X connect 11 0 6 1;
#X connect 12 0 7 1;
#X connect 13 0 7 1;
#X connect 14 0 6 1;
#X connect 15 0 5 1;
#X connect 16 0 23 1;
#X connect 17 0 1 2;
#X connect 18 0 1 1;
#X connect 19 0 12 0;
#X connect 20 0 13 0;
#X connect 21 0 14 0;
#X connect 22 0 11 0;
#X connect 23 0 1 0;
#X connect 24 0 7 0;
#X connect 24 0 6 0;
#X connect 26 0 4 0;
#X connect 27 0 26 1;
#X restore 456 26 pd calculatedamping3;
#N canvas 801 150 711 611 calculatedamping4 0;
#X obj 39 306 dbtorms;
#X obj 39 438 clip 0 1;
#X obj 40 219 + 1;
#X obj 39 277 expr (100 - $f1);
#X obj 40 190 line;
#X obj 40 249 expr abs($f2 * log10($f1));
#X obj 40 132 spigot;
#X obj 338 189 spigot;
#X obj 338 248 line;
#X msg 338 219 \$1 10;
#X obj 338 278 expr (1 / $f1);
#X msg 97 98 0;
#X msg 395 157 1;
#X msg 446 156 0;
#X msg 146 97 1;
#X obj 119 217 r \$0-dampingfactor;
#X obj 66 346 r \$0-dampingtrim;
#X obj 116 380 r \$0-dampingmax;
#X obj 77 408 r \$0-dampingmin;
#X obj 395 94 r \$0-lineardampingon;
#X obj 446 124 r \$0-lineardampingoff;
#X obj 146 67 r \$0-expdampingon;
#X obj 97 38 r \$0-expdampingoff;
#X obj 39 375 * 1;
#X obj 40 9 receive \$0-distance4;
#X obj 39 470 s \$0-distancescaling4;
#X obj 39 162 pack 100 10;
#X obj 103 139 receive \$0-smoothdist;
#X connect 0 0 23 0;
#X connect 1 0 25 0;
#X connect 2 0 5 0;
#X connect 3 0 0 0;
#X connect 4 0 2 0;
#X connect 5 0 3 0;
#X connect 6 0 26 0;
#X connect 7 0 9 0;
#X connect 8 0 10 0;
#X connect 9 0 8 0;
#X connect 10 0 23 0;
#X connect 11 0 6 1;
#X connect 12 0 7 1;
#X connect 13 0 7 1;
#X connect 14 0 6 1;
#X connect 15 0 5 1;
#X connect 16 0 23 1;
#X connect 17 0 1 2;
#X connect 18 0 1 1;
#X connect 19 0 12 0;
#X connect 20 0 13 0;
#X connect 21 0 14 0;
#X connect 22 0 11 0;
#X connect 23 0 1 0;
#X connect 24 0 7 0;
#X connect 24 0 6 0;
#X connect 26 0 4 0;
#X connect 27 0 26 1;
#X restore 457 56 pd calculatedamping4;
#N canvas 801 150 711 611 calculatedamping5 0;
#X obj 39 306 dbtorms;
#X obj 39 438 clip 0 1;
#X obj 40 219 + 1;
#X obj 39 277 expr (100 - $f1);
#X obj 40 190 line;
#X obj 40 249 expr abs($f2 * log10($f1));
#X obj 40 132 spigot;
#X obj 338 189 spigot;
#X obj 338 248 line;
#X msg 338 219 \$1 10;
#X obj 338 278 expr (1 / $f1);
#X msg 97 98 0;
#X msg 395 157 1;
#X msg 446 156 0;
#X msg 146 97 1;
#X obj 119 217 r \$0-dampingfactor;
#X obj 66 346 r \$0-dampingtrim;
#X obj 116 380 r \$0-dampingmax;
#X obj 77 408 r \$0-dampingmin;
#X obj 395 94 r \$0-lineardampingon;
#X obj 446 124 r \$0-lineardampingoff;
#X obj 146 67 r \$0-expdampingon;
#X obj 97 38 r \$0-expdampingoff;
#X obj 39 375 * 1;
#X obj 40 9 receive \$0-distance5;
#X obj 39 470 s \$0-distancescaling5;
#X obj 40 160 pack 100 10;
#X obj 103 134 receive \$0-smoothdist;
#X connect 0 0 23 0;
#X connect 1 0 25 0;
#X connect 2 0 5 0;
#X connect 3 0 0 0;
#X connect 4 0 2 0;
#X connect 5 0 3 0;
#X connect 6 0 26 0;
#X connect 7 0 9 0;
#X connect 8 0 10 0;
#X connect 9 0 8 0;
#X connect 10 0 23 0;
#X connect 11 0 6 1;
#X connect 12 0 7 1;
#X connect 13 0 7 1;
#X connect 14 0 6 1;
#X connect 15 0 5 1;
#X connect 16 0 23 1;
#X connect 17 0 1 2;
#X connect 18 0 1 1;
#X connect 19 0 12 0;
#X connect 20 0 13 0;
#X connect 21 0 14 0;
#X connect 22 0 11 0;
#X connect 23 0 1 0;
#X connect 24 0 7 0;
#X connect 24 0 6 0;
#X connect 26 0 4 0;
#X connect 27 0 26 1;
#X restore 458 87 pd calculatedamping5;
#X connect 2 0 0 0;
#X connect 3 0 1 0;
#X connect 5 0 118 0;
#X connect 6 0 2 0;
#X connect 6 1 3 0;
#X connect 7 0 147 0;
#X connect 10 0 11 0;
#X connect 11 0 9 0;
#X connect 12 0 148 0;
#X connect 13 0 148 0;
#X connect 14 0 170 1;
#X connect 15 0 7 0;
#X connect 15 1 169 0;
#X connect 15 2 24 0;
#X connect 16 0 12 0;
#X connect 16 1 17 0;
#X connect 16 2 25 0;
#X connect 17 0 13 0;
#X connect 18 0 113 0;
#X connect 19 0 113 1;
#X connect 20 0 100 0;
#X connect 21 0 20 0;
#X connect 21 1 32 0;
#X connect 22 0 20 1;
#X connect 23 0 21 0;
#X connect 23 0 171 0;
#X connect 24 0 18 1;
#X connect 24 0 37 1;
#X connect 24 0 52 1;
#X connect 24 0 53 1;
#X connect 24 0 54 1;
#X connect 24 0 103 1;
#X connect 24 0 151 1;
#X connect 24 1 19 1;
#X connect 24 1 36 1;
#X connect 24 1 49 1;
#X connect 24 1 50 1;
#X connect 24 1 51 1;
#X connect 24 1 101 1;
#X connect 24 1 149 1;
#X connect 25 0 19 1;
#X connect 25 0 36 1;
#X connect 25 0 49 1;
#X connect 25 0 50 1;
#X connect 25 0 51 1;
#X connect 25 0 101 1;
#X connect 25 0 149 1;
#X connect 25 1 37 1;
#X connect 25 1 52 1;
#X connect 25 1 53 1;
#X connect 25 1 54 1;
#X connect 25 1 18 1;
#X connect 25 1 103 1;
#X connect 25 1 151 1;
#X connect 26 0 28 1;
#X connect 27 0 15 0;
#X connect 27 1 16 0;
#X connect 28 0 15 0;
#X connect 28 1 170 0;
#X connect 29 0 92 1;
#X connect 29 0 91 1;
#X connect 29 0 90 1;
#X connect 29 0 89 1;
#X connect 29 0 88 1;
#X connect 29 0 104 1;
#X connect 29 0 152 1;
#X connect 31 0 17 1;
#X connect 33 0 34 0;
#X connect 34 0 11 0;
#X connect 34 1 35 0;
#X connect 36 0 114 1;
#X connect 37 0 114 0;
#X connect 40 0 38 0;
#X connect 41 0 39 0;
#X connect 42 0 119 0;
#X connect 43 0 40 0;
#X connect 43 1 41 0;
#X connect 45 0 160 0;
#X connect 46 0 119 2;
#X connect 47 0 40 1;
#X connect 47 0 41 1;
#X connect 48 0 97 1;
#X connect 48 0 96 1;
#X connect 48 0 95 1;
#X connect 48 0 94 1;
#X connect 48 0 93 1;
#X connect 48 0 102 1;
#X connect 48 0 150 1;
#X connect 49 0 115 1;
#X connect 50 0 116 1;
#X connect 51 0 117 1;
#X connect 52 0 115 0;
#X connect 53 0 116 0;
#X connect 54 0 117 0;
#X connect 57 0 55 0;
#X connect 58 0 56 0;
#X connect 59 0 120 0;
#X connect 60 0 57 0;
#X connect 60 1 58 0;
#X connect 62 0 166 0;
#X connect 63 0 120 2;
#X connect 64 0 57 1;
#X connect 64 0 58 1;
#X connect 67 0 65 0;
#X connect 68 0 66 0;
#X connect 69 0 121 0;
#X connect 70 0 67 0;
#X connect 70 1 68 0;
#X connect 72 0 158 0;
#X connect 73 0 121 2;
#X connect 74 0 67 1;
#X connect 74 0 68 1;
#X connect 77 0 75 0;
#X connect 78 0 76 0;
#X connect 79 0 122 0;
#X connect 80 0 77 0;
#X connect 80 1 78 0;
#X connect 82 0 162 0;
#X connect 83 0 122 2;
#X connect 84 0 77 1;
#X connect 84 0 78 1;
#X connect 85 0 164 0;
#X connect 86 0 118 2;
#X connect 87 0 2 1;
#X connect 87 0 3 1;
#X connect 88 0 18 0;
#X connect 89 0 37 0;
#X connect 90 0 52 0;
#X connect 91 0 53 0;
#X connect 92 0 54 0;
#X connect 93 0 19 0;
#X connect 94 0 36 0;
#X connect 95 0 49 0;
#X connect 96 0 50 0;
#X connect 97 0 51 0;
#X connect 98 0 147 0;
#X connect 99 0 148 0;
#X connect 100 0 8 0;
#X connect 100 1 11 0;
#X connect 100 2 14 0;
#X connect 100 3 98 0;
#X connect 100 3 99 0;
#X connect 101 0 135 1;
#X connect 102 0 101 0;
#X connect 103 0 135 0;
#X connect 104 0 103 0;
#X connect 106 0 109 0;
#X connect 106 0 108 0;
#X connect 107 0 9 0;
#X connect 109 0 111 0;
#X connect 109 1 107 0;
#X connect 110 0 111 1;
#X connect 111 0 112 0;
#X connect 112 0 28 0;
#X connect 112 1 30 0;
#X connect 113 0 4 0;
#X connect 113 0 6 0;
#X connect 113 0 118 0;
#X connect 113 1 4 0;
#X connect 113 1 6 0;
#X connect 113 1 118 0;
#X connect 114 0 44 0;
#X connect 114 0 43 0;
#X connect 114 0 119 0;
#X connect 114 1 44 0;
#X connect 114 1 43 0;
#X connect 114 1 119 0;
#X connect 115 0 61 0;
#X connect 115 0 60 0;
#X connect 115 0 120 0;
#X connect 115 1 61 0;
#X connect 115 1 60 0;
#X connect 115 1 120 0;
#X connect 116 0 71 0;
#X connect 116 0 70 0;
#X connect 116 0 121 0;
#X connect 116 1 71 0;
#X connect 116 1 70 0;
#X connect 116 1 121 0;
#X connect 117 0 81 0;
#X connect 117 0 80 0;
#X connect 117 0 122 0;
#X connect 117 1 81 0;
#X connect 117 1 80 0;
#X connect 117 1 122 0;
#X connect 118 0 2 0;
#X connect 118 1 3 0;
#X connect 119 0 40 0;
#X connect 119 1 41 0;
#X connect 120 0 57 0;
#X connect 120 1 58 0;
#X connect 121 0 67 0;
#X connect 121 1 68 0;
#X connect 122 0 77 0;
#X connect 122 1 78 0;
#X connect 125 0 123 0;
#X connect 126 0 124 0;
#X connect 127 0 137 0;
#X connect 128 0 125 0;
#X connect 128 1 126 0;
#X connect 131 0 129 0;
#X connect 132 0 130 0;
#X connect 133 0 138 0;
#X connect 134 0 131 0;
#X connect 134 1 132 0;
#X connect 135 0 128 0;
#X connect 135 0 137 0;
#X connect 135 0 145 0;
#X connect 135 1 128 0;
#X connect 135 1 137 0;
#X connect 135 1 145 0;
#X connect 136 0 134 0;
#X connect 136 0 138 0;
#X connect 136 0 146 0;
#X connect 136 1 134 0;
#X connect 136 1 138 0;
#X connect 136 1 146 0;
#X connect 137 0 125 0;
#X connect 137 1 126 0;
#X connect 138 0 131 0;
#X connect 138 1 132 0;
#X connect 139 0 168 0;
#X connect 140 0 137 2;
#X connect 141 0 156 0;
#X connect 142 0 138 2;
#X connect 143 0 125 1;
#X connect 143 0 126 1;
#X connect 144 0 131 1;
#X connect 144 0 132 1;
#X connect 147 0 88 0;
#X connect 147 1 89 0;
#X connect 147 2 90 0;
#X connect 147 3 91 0;
#X connect 147 4 92 0;
#X connect 147 5 104 0;
#X connect 147 6 152 0;
#X connect 148 0 93 0;
#X connect 148 1 94 0;
#X connect 148 2 95 0;
#X connect 148 3 96 0;
#X connect 148 4 97 0;
#X connect 148 5 102 0;
#X connect 148 6 150 0;
#X connect 149 0 136 1;
#X connect 150 0 149 0;
#X connect 151 0 136 0;
#X connect 152 0 151 0;
#X connect 155 0 138 1;
#X connect 156 0 155 0;
#X connect 157 0 121 1;
#X connect 158 0 157 0;
#X connect 159 0 119 1;
#X connect 160 0 159 0;
#X connect 161 0 122 1;
#X connect 162 0 161 0;
#X connect 163 0 118 1;
#X connect 164 0 163 0;
#X connect 165 0 120 1;
#X connect 166 0 165 0;
#X connect 167 0 137 1;
#X connect 168 0 167 0;
#X connect 169 0 147 0;
#X connect 170 0 27 0;
#X connect 171 0 111 0;
