#N canvas 381 27 1346 949 16;
#X obj 96 914 throw~ out1;
#X obj 254 914 throw~ out2;
#X obj 96 879 *~ 0;
#X obj 254 878 *~ 0;
#X obj 148 682 delwrite~ \$0-groundreflection 1000;
#N canvas 316 82 1067 900 groundreflection 0;
#X obj 461 316 expr 2 * sqrt( pow( ($f1/2) \, 2) + pow($f2 \, 2) )
;
#X obj 461 346 -;
#X obj 461 207 t f f b;
#X obj 461 376 / 340;
#X obj 461 500 *~ 0;
#X obj 461 470 delread~ \$0-groundreflection 10;
#X obj 531 558 *~ 0;
#X obj 531 498 delread~ \$0-groundreflection 10;
#X obj 461 405 * 1000;
#X obj 461 437 - 5;
#X obj 532 439 + 5;
#X obj -63 346 dbtorms;
#X obj -63 375 clip 0 1;
#X obj -63 259 + 1;
#X obj -63 317 expr (100 - $f1);
#X obj -62 289 expr abs(30 * log10($f1));
#X obj -62 409 * 0.7;
#X obj 461 657 outlet~;
#X obj 117 536 *~ 0;
#X obj 117 473 delread~ \$0-groundreflection 10;
#X obj 531 589 lop~ 5000;
#X obj 461 528 lop~ 6000;
#X obj 117 504 lop~ 8000;
#X msg 928 283 17;
#X obj 461 160 receive \$0-distance1;
#X obj 216 193 switch~;
#X msg 215 151 0;
#X msg 269 151 1;
#X obj 269 120 r \$0-play;
#X obj 215 88 r \$0-playfinished;
#X obj 108 85 loadbang;
#X obj 198 45 r \$0-free;
#X connect 0 0 1 0;
#X connect 1 0 3 0;
#X connect 2 0 0 0;
#X connect 2 1 1 1;
#X connect 2 2 23 0;
#X connect 3 0 8 0;
#X connect 4 0 21 0;
#X connect 5 0 4 0;
#X connect 6 0 20 0;
#X connect 7 0 6 0;
#X connect 8 0 9 0;
#X connect 8 0 10 0;
#X connect 8 0 19 0;
#X connect 9 0 5 0;
#X connect 10 0 7 0;
#X connect 11 0 12 0;
#X connect 12 0 16 0;
#X connect 12 0 18 1;
#X connect 13 0 15 0;
#X connect 14 0 11 0;
#X connect 15 0 14 0;
#X connect 16 0 4 1;
#X connect 16 0 6 1;
#X connect 18 0 17 0;
#X connect 19 0 22 0;
#X connect 20 0 17 0;
#X connect 21 0 17 0;
#X connect 22 0 18 0;
#X connect 23 0 0 1;
#X connect 24 0 2 0;
#X connect 24 0 13 0;
#X connect 26 0 25 0;
#X connect 27 0 25 0;
#X connect 28 0 27 0;
#X connect 29 0 26 0;
#X connect 30 0 26 0;
#X connect 31 0 26 0;
#X restore 116 714 pd groundreflection;
#N canvas 396 252 942 819 latereflections 0;
#X obj -118 558 outlet~;
#X obj -31 558 outlet~;
#X obj -118 492 freeverb~;
#X msg 86 398 wet \$1;
#X msg 108 336 0;
#X msg -118 154 roomsize \$1;
#X msg -75 266 damping \$1;
#X msg -74 223 0.99;
#X obj 85 173 dbtorms;
#X obj 85 202 clip 0 1;
#X obj 85 86 + 1;
#X obj 85 144 expr (100 - $f1);
#X obj 86 116 expr abs(30 * log10($f1));
#X obj -117 25 loadbang;
#X obj -31 386 inlet~;
#X msg -117 110 0.55;
#X obj 85 234 expr (1 / $f1) * (0.00007);
#X obj 85 54 receive \$0-distance1;
#X obj 319 409 switch~;
#X msg 318 367 0;
#X msg 372 367 1;
#X obj 372 336 r \$0-play;
#X obj 318 304 r \$0-playfinished;
#X obj 281 268 r \$0-free;
#X obj 481 447 print "switchon";
#X obj 290 513 print "switchoff";
#X connect 2 0 0 0;
#X connect 2 1 1 0;
#X connect 3 0 2 0;
#X connect 4 0 3 0;
#X connect 5 0 2 0;
#X connect 6 0 2 0;
#X connect 7 0 6 0;
#X connect 8 0 9 0;
#X connect 9 0 16 0;
#X connect 10 0 12 0;
#X connect 11 0 8 0;
#X connect 12 0 11 0;
#X connect 13 0 15 0;
#X connect 13 0 7 0;
#X connect 13 0 4 0;
#X connect 13 0 19 0;
#X connect 14 0 2 0;
#X connect 14 0 2 1;
#X connect 15 0 5 0;
#X connect 16 0 3 0;
#X connect 17 0 10 0;
#X connect 19 0 18 0;
#X connect 20 0 18 0;
#X connect 21 0 20 0;
#X connect 21 0 24 0;
#X connect 22 0 19 0;
#X connect 22 0 25 0;
#X connect 23 0 19 0;
#X connect 23 0 25 0;
#X restore 333 716 pd latereflections;
#X obj 402 219 s \$0-playfinished;
#X obj 431 315 switch~;
#X obj 431 251 loadbang;
#X msg 431 283 0;
#X msg 94 94 1;
#X msg 84 258 1;
#X msg 460 186 0;
#X obj 84 358 t b b b;
#X obj 352 360 t b b b;
#X obj 84 588 *~ 0;
#X obj 354 599 *~ 0;
#X obj 402 119 delay 10;
#X obj 402 83 t b b;
#X obj 479 83 r \$0-fadeouttime;
#X obj 402 28 r \$0-end;
#N canvas 923 226 718 504 2x2crossfade 0;
#X obj 24 22 line 0;
#X obj 81 -97 r \$0-crossfadetime;
#X obj 123 21 line 1;
#X obj 24 -57 f 5000;
#X obj 24 64 outlet;
#X obj 123 62 outlet;
#X obj 224 -137 inlet;
#X msg 24 -17 0 \, 1 \$1;
#X msg 123 -19 1 \, 0 \$1;
#X obj 24 -138 r \$0-startcrossfade;
#X obj 291 -138 r \$0-stopfades;
#X msg 291 -103 0;
#X msg 344 -103 1;
#X connect 0 0 4 0;
#X connect 1 0 3 1;
#X connect 2 0 5 0;
#X connect 3 0 7 0;
#X connect 3 0 8 0;
#X connect 6 0 3 0;
#X connect 7 0 0 0;
#X connect 8 0 2 0;
#X connect 9 0 3 0;
#X connect 10 0 11 0;
#X connect 10 0 12 0;
#X connect 11 0 0 0;
#X connect 12 0 2 0;
#X coords 0 504 1 503 200 60 0;
#X restore 151 393 pd 2x2crossfade;
#N canvas 656 75 607 470 2x2crossfade 0;
#X obj 19 -74 line 0;
#X obj 76 -193 r \$0-crossfadetime;
#X obj 118 -76 line 1;
#X obj 19 -153 f 5000;
#X obj 19 -32 outlet;
#X obj 118 -35 outlet;
#X obj 219 -233 inlet;
#X msg 19 -113 0 \, 1 \$1;
#X msg 118 -115 1 \, 0 \$1;
#X obj 19 -234 r \$0-startcrossfade;
#X obj 295 -233 r \$0-stopfades;
#X msg 295 -198 0;
#X msg 348 -198 1;
#X obj 295 -44 print weirdSuddenfadeout;
#X obj 257 41 print startCrossfade;
#X connect 0 0 4 0;
#X connect 1 0 3 1;
#X connect 2 0 5 0;
#X connect 3 0 7 0;
#X connect 3 0 8 0;
#X connect 6 0 3 0;
#X connect 6 0 14 0;
#X connect 7 0 0 0;
#X connect 8 0 2 0;
#X connect 9 0 3 0;
#X connect 10 0 11 0;
#X connect 10 0 12 0;
#X connect 11 0 0 0;
#X connect 11 0 13 0;
#X connect 12 0 2 0;
#X connect 12 0 13 0;
#X coords 0 470 1 469 200 60 0;
#X restore 432 391 pd 2x2crossfade;
#X obj 114 162 r \$0-loop;
#N canvas 342 159 1130 869 alternategate 0;
#X obj 315 197 inlet;
#X obj 286 561 outlet;
#X obj 445 563 outlet;
#X obj 419 338 + 1;
#X obj 367 372 % 2;
#X obj 367 338 f 0;
#X obj 304 440 spigot;
#X obj 367 406 == 0;
#X obj 510 404 == 1;
#X obj 447 439 spigot;
#X obj 315 301 t b b;
#X obj 461 168 r \$0-filename;
#X msg 462 243 0;
#X obj 461 204 t b;
#X text 515 201 Always reset the alternate gate to left outlet first.
No idea \, why I have to to this here and in the normal (wav + aif)
player not.;
#X connect 0 0 10 0;
#X connect 3 0 5 1;
#X connect 4 0 7 0;
#X connect 4 0 8 0;
#X connect 5 0 3 0;
#X connect 5 0 4 0;
#X connect 6 0 1 0;
#X connect 7 0 6 1;
#X connect 8 0 9 1;
#X connect 9 0 2 0;
#X connect 10 0 6 0;
#X connect 10 0 9 0;
#X connect 10 1 5 0;
#X connect 11 0 13 0;
#X connect 12 0 5 1;
#X connect 13 0 12 0;
#X restore 84 323 pd alternategate;
#N canvas 618 172 690 620 gate 0;
#X obj 160 118 inlet;
#X obj 257 118 inlet;
#X obj 142 455 outlet;
#X obj 268 450 outlet;
#X obj 225 248 == 0;
#X obj 294 248 == 1;
#X obj 162 337 spigot 1;
#X obj 272 337 spigot 0;
#X connect 0 0 6 0;
#X connect 0 0 7 0;
#X connect 1 0 4 0;
#X connect 1 0 5 0;
#X connect 4 0 6 1;
#X connect 5 0 7 1;
#X connect 6 0 2 0;
#X connect 7 0 3 0;
#X restore 47 196 pd gate;
#X obj 242 490 r \$0-gain;
#X obj 94 228 s \$0-startfadein;
#X obj 148 97 s \$0-filename;
#X obj 510 119 s \$0-startfadeout;
#X obj 612 152 r \$0-free;
#X obj 612 185 t b b;
#X obj 659 217 s \$0-stopfades;
#X obj 253 803 r \$0-elevation1;
#X obj 354 567 *~ 0;
#X obj 84 556 *~ 0;
#X msg 158 487 stop;
#X msg 408 492 stop;
#X obj 402 154 t b b b b;
#X obj 47 125 delay 10;
#X obj 124 65 r \$0-offset;
#N canvas 410 82 781 348 selectdamping 0;
#X obj 27 -126 r \$0-dampingfunction;
#X obj 27 -2 s \$0-lineardampingoff;
#X obj 27 -60 t b b;
#X obj 74 -31 s \$0-expdampingon;
#X obj 62 35 t b b;
#X obj 62 93 s \$0-lineardampingon;
#X obj 109 64 s \$0-expdampingoff;
#X obj 27 -91 route 1 2 0;
#X obj 443 56 s \$0-lineardampingoff;
#X obj 409 25 s \$0-expdampingoff;
#X obj 376 -5 t b b b;
#X msg 376 59 1;
#X obj 376 90 s \$0-distancescaling1;
#X connect 0 0 7 0;
#X connect 2 0 1 0;
#X connect 2 1 3 0;
#X connect 4 0 5 0;
#X connect 4 1 6 0;
#X connect 7 0 2 0;
#X connect 7 1 4 0;
#X connect 7 2 10 0;
#X connect 10 0 11 0;
#X connect 10 1 9 0;
#X connect 10 2 8 0;
#X connect 11 0 12 0;
#X restore 645 335 pd selectdamping;
#N canvas 920 150 711 611 calculatedamping 0;
#X obj 39 306 dbtorms;
#X obj 39 438 clip 0 1;
#X obj 40 219 + 1;
#X obj 39 277 expr (100 - $f1);
#X obj 40 9 receive \$0-distance1;
#X obj 39 470 s \$0-distancescaling1;
#X obj 40 190 line;
#X msg 40 161 \$1 10;
#X obj 40 249 expr abs($f2 * log10($f1));
#X obj 40 132 spigot;
#X obj 338 189 spigot;
#X obj 338 248 line;
#X msg 338 219 \$1 10;
#X obj 338 278 expr (1 / $f1);
#X msg 97 98 0;
#X msg 395 157 1;
#X msg 446 156 0;
#X msg 146 97 1;
#X obj 119 217 r \$0-dampingfactor;
#X obj 66 346 r \$0-dampingtrim;
#X obj 116 380 r \$0-dampingmax;
#X obj 77 408 r \$0-dampingmin;
#X obj 395 94 r \$0-lineardampingon;
#X obj 446 124 r \$0-lineardampingoff;
#X obj 146 67 r \$0-expdampingon;
#X obj 97 38 r \$0-expdampingoff;
#X obj 39 375 * 1;
#X connect 0 0 26 0;
#X connect 1 0 5 0;
#X connect 2 0 8 0;
#X connect 3 0 0 0;
#X connect 4 0 10 0;
#X connect 4 0 9 0;
#X connect 6 0 2 0;
#X connect 7 0 6 0;
#X connect 8 0 3 0;
#X connect 9 0 7 0;
#X connect 10 0 12 0;
#X connect 11 0 13 0;
#X connect 12 0 11 0;
#X connect 13 0 26 0;
#X connect 14 0 9 1;
#X connect 15 0 10 1;
#X connect 16 0 10 1;
#X connect 17 0 9 1;
#X connect 18 0 8 1;
#X connect 19 0 26 1;
#X connect 20 0 1 2;
#X connect 21 0 1 1;
#X connect 22 0 15 0;
#X connect 23 0 16 0;
#X connect 24 0 17 0;
#X connect 25 0 14 0;
#X connect 26 0 1 0;
#X restore 615 382 pd calculatedamping;
#X obj 47 164 t b b;
#N canvas 118 59 1009 644 2chfadeinfadeout 0;
#X obj 555 -63 f 5000;
#X obj 618 -103 r \$0-fadeouttime;
#X obj 284 240 *~ 0;
#X obj 209 239 *~ 0;
#X text 360 165 fadein;
#X text 437 164 fadeout;
#X obj 313 35 r \$0-fadeintime;
#X obj 250 75 f 1000;
#X obj 209 278 outlet~;
#X obj 284 311 outlet~;
#X obj 42 -139 inlet~;
#X obj 141 -137 inlet~;
#X text 256 -176 bang to start fade;
#X msg 250 115 1 \$1;
#X msg 555 -23 0 \$1;
#X obj 250 164 line 0;
#X obj 250 -140 r \$0-startfadein;
#X obj 555 -144 r \$0-startfadeout;
#X obj 345 74 r \$0-stopfades;
#X msg 345 108 0;
#X msg 313 -39 0;
#X obj 250 -5 spigot;
#X obj 266 -72 r \$0-play;
#X msg 266 -39 1;
#X connect 0 0 14 0;
#X connect 1 0 0 1;
#X connect 2 0 9 0;
#X connect 3 0 8 0;
#X connect 6 0 7 1;
#X connect 7 0 13 0;
#X connect 10 0 3 0;
#X connect 11 0 2 0;
#X connect 13 0 15 0;
#X connect 14 0 15 0;
#X connect 15 0 2 1;
#X connect 15 0 3 1;
#X connect 16 0 21 0;
#X connect 17 0 0 0;
#X connect 17 0 20 0;
#X connect 18 0 19 0;
#X connect 19 0 15 0;
#X connect 20 0 21 1;
#X connect 21 0 7 0;
#X connect 22 0 23 0;
#X connect 23 0 21 1;
#X coords 0 644 1 643 200 60 0;
#X restore 93 628 pd 2chfadeinfadeout;
#N canvas 771 265 909 758 binaural256vs 0;
#X obj 87 82 inlet~;
#X obj 187 82 inlet;
#X obj 307 86 inlet;
#X obj 225 215 outlet~;
#X obj 102 216 outlet~;
#X obj 50 154 rwa_binauralsimple~ 256 fabian_dir256.txt, f 47;
#X obj 247 315 block~ 256;
#X connect 0 0 5 0;
#X connect 1 0 5 1;
#X connect 2 0 5 2;
#X connect 5 0 4 0;
#X connect 5 1 3 0;
#X restore 96 835 pd binaural256vs;
#X obj 291 833 r \$0-distancescaling1;
#X obj 174 744 r \$0-azimuth1;
#X obj 174 802 + 180;
#X obj 174 774 expr 360 -$f1 \;;
#N canvas 779 68 869 716 firstcrossfademetro 0;
#X obj 196 151 r \$0-firstcrossfade;
#X obj 116 290 metro 3000;
#X msg 116 169 1;
#X obj 83 126 t b b b;
#X obj 213 183 delay 500;
#X obj 149 248 float;
#X obj 260 211 r \$0-crossfadeafter;
#X obj 213 248 float;
#X obj 83 92 inlet;
#X obj 116 345 outlet;
#X obj 314 89 inlet;
#X connect 0 0 5 1;
#X connect 1 0 9 0;
#X connect 2 0 1 0;
#X connect 3 0 4 0;
#X connect 3 1 2 0;
#X connect 3 2 5 0;
#X connect 4 0 7 0;
#X connect 5 0 1 1;
#X connect 6 0 7 1;
#X connect 7 0 1 1;
#X connect 8 0 3 0;
#X connect 10 0 1 0;
#X restore 84 290 pd firstcrossfademetro;
#X msg 250 64 stop;
#X obj 47 32 r \$0-play;
#N canvas 727 207 509 437 generateopenmessage 0;
#X obj 71 55 r \$0-filename;
#X obj 14 15 inlet;
#X obj 14 156 outlet;
#X msg 14 124 open \$1;
#X obj 14 92 symbol;
#X connect 0 0 4 1;
#X connect 1 0 4 0;
#X connect 3 0 2 0;
#X connect 4 0 3 0;
#X restore 117 456 pd generateopenmessage;
#N canvas 719 138 457 384 generatestartmessage 0;
#X obj 148 58 r \$0-playheadposition;
#X obj 44 15 inlet;
#X obj 45 304 outlet;
#X obj 185 178 t b;
#X msg 185 210 0;
#X obj 148 98 / 48000;
#X msg 45 272 start \$1;
#X obj 44 173 f 0;
#X obj 44 210 t b f;
#X connect 0 0 5 0;
#X connect 1 0 7 0;
#X connect 3 0 4 0;
#X connect 4 0 7 1;
#X connect 5 0 7 1;
#X connect 6 0 2 0;
#X connect 7 0 8 0;
#X connect 8 0 3 0;
#X connect 8 1 6 0;
#X restore 84 424 pd generatestartmessage;
#X obj 84 520 oggread~;
#N canvas 727 207 509 437 generateopenmessage 0;
#X obj 71 55 r \$0-filename;
#X obj 14 15 inlet;
#X obj 14 156 outlet;
#X msg 14 124 open \$1;
#X obj 14 92 symbol;
#X connect 0 0 4 1;
#X connect 1 0 4 0;
#X connect 3 0 2 0;
#X connect 4 0 3 0;
#X restore 385 459 pd generateopenmessage;
#N canvas 719 138 457 384 generatestartmessage 0;
#X obj 44 15 inlet;
#X obj 45 304 outlet;
#X msg 45 272 start 0;
#X connect 0 0 2 0;
#X connect 2 0 1 0;
#X restore 353 429 pd generatestartmessage;
#X obj 354 525 oggread~;
#X obj 47 65 t b b s;
#X connect 2 0 0 0;
#X connect 3 0 1 0;
#X connect 5 0 46 0;
#X connect 6 0 2 0;
#X connect 6 1 3 0;
#X connect 9 0 10 0;
#X connect 10 0 8 0;
#X connect 11 0 8 0;
#X connect 12 0 51 0;
#X connect 13 0 51 1;
#X connect 14 0 55 0;
#X connect 14 2 22 0;
#X connect 15 0 58 0;
#X connect 15 2 23 0;
#X connect 16 0 45 0;
#X connect 17 0 45 1;
#X connect 18 0 39 0;
#X connect 19 0 18 0;
#X connect 19 1 30 0;
#X connect 20 0 18 1;
#X connect 21 0 19 0;
#X connect 21 0 52 0;
#X connect 22 0 16 1;
#X connect 22 1 17 1;
#X connect 23 0 17 1;
#X connect 23 1 16 1;
#X connect 24 0 26 1;
#X connect 25 0 14 0;
#X connect 25 1 15 0;
#X connect 26 0 14 0;
#X connect 26 1 12 0;
#X connect 27 0 35 1;
#X connect 27 0 36 1;
#X connect 31 0 32 0;
#X connect 32 0 10 0;
#X connect 32 1 33 0;
#X connect 34 0 46 2;
#X connect 35 0 17 0;
#X connect 36 0 16 0;
#X connect 37 0 56 0;
#X connect 38 0 59 0;
#X connect 39 0 7 0;
#X connect 39 1 10 0;
#X connect 39 2 13 0;
#X connect 39 3 37 0;
#X connect 39 3 38 0;
#X connect 40 0 44 0;
#X connect 41 0 40 1;
#X connect 44 0 26 0;
#X connect 44 1 28 0;
#X connect 45 0 4 0;
#X connect 45 0 6 0;
#X connect 45 0 46 0;
#X connect 45 1 4 0;
#X connect 45 1 6 0;
#X connect 45 1 46 0;
#X connect 46 0 2 0;
#X connect 46 1 3 0;
#X connect 47 0 2 1;
#X connect 47 0 3 1;
#X connect 48 0 50 0;
#X connect 49 0 46 1;
#X connect 50 0 49 0;
#X connect 51 0 25 0;
#X connect 52 0 40 0;
#X connect 53 0 60 0;
#X connect 54 0 56 0;
#X connect 55 0 56 0;
#X connect 56 0 36 0;
#X connect 57 0 59 0;
#X connect 58 0 59 0;
#X connect 59 0 35 0;
#X connect 60 0 40 0;
#X connect 60 1 11 0;
#X connect 60 1 54 0;
#X connect 60 1 57 0;
#X connect 60 2 29 0;
