#N canvas 712 65 997 817 10;
#X obj 38 24 catch~ out1;
#X obj 134 24 catch~ out2;
#X obj 155 116 receive rwamainvolume;
#X obj 52 692 dac~ 1 2;
#X obj 52 650 clip~ -1 1;
#X obj 148 648 clip~ -1 1;
#X obj 38 172 *~ 1;
#X obj 134 170 *~ 1;
#X obj 40 378 biquad~;
#X obj 41 460 biquad~;
#X obj 41 528 biquad~;
#X msg 39 246 1.01675 -1.85643 0.92599 -1.85643 0.942737;
#X obj 39 305 biquad~;
#X msg 41 413 0.930619 -0.781758 0.693377 -0.781758 0.623996;
#X msg 41 495 1.04059 0.262493 0.85511 0.262493 0.895698;
#X msg 39 344 1.08684 -1.59617 0.616228 -1.59617 0.703066;
#X obj 326 377 biquad~;
#X obj 327 459 biquad~;
#X obj 327 527 biquad~;
#X msg 325 245 1.01675 -1.85643 0.92599 -1.85643 0.942737;
#X obj 325 304 biquad~;
#X msg 327 412 0.930619 -0.781758 0.693377 -0.781758 0.623996;
#X msg 327 494 1.04059 0.262493 0.85511 0.262493 0.895698;
#X msg 325 343 1.08684 -1.59617 0.616228 -1.59617 0.703066;
#X obj 437 176 loadbang;
#X connect 0 0 6 0;
#X connect 1 0 7 0;
#X connect 2 0 6 1;
#X connect 2 0 7 1;
#X connect 4 0 3 0;
#X connect 5 0 3 1;
#X connect 6 0 12 0;
#X connect 7 0 20 0;
#X connect 8 0 9 0;
#X connect 9 0 10 0;
#X connect 10 0 4 0;
#X connect 11 0 12 0;
#X connect 12 0 8 0;
#X connect 13 0 9 0;
#X connect 14 0 10 0;
#X connect 15 0 8 0;
#X connect 16 0 17 0;
#X connect 17 0 18 0;
#X connect 18 0 5 0;
#X connect 19 0 20 0;
#X connect 20 0 16 0;
#X connect 21 0 17 0;
#X connect 22 0 18 0;
#X connect 23 0 16 0;
#X connect 24 0 19 0;
#X connect 24 0 23 0;
#X connect 24 0 21 0;
#X connect 24 0 22 0;
#X connect 24 0 11 0;
#X connect 24 0 15 0;
#X connect 24 0 13 0;
#X connect 24 0 14 0;
