#N canvas 602 33 997 817 10;
#X obj 38 24 catch~ out1;
#X obj 134 24 catch~ out2;
#X obj 155 116 receive rwamainvolume;
#X obj 38 262 dac~ 1 2;
#X obj 38 220 clip~ -1 1;
#X obj 134 218 clip~ -1 1;
#X obj 38 172 *~ 1;
#X obj 134 170 *~ 1;
#X connect 0 0 6 0;
#X connect 1 0 7 0;
#X connect 2 0 6 1;
#X connect 2 0 7 1;
#X connect 4 0 3 0;
#X connect 5 0 3 1;
#X connect 6 0 4 0;
#X connect 7 0 5 0;
